<svg width="160" height="28" viewBox="0 0 160 28" fill="none" xmlns="http://www.w3.org/2000/svg">
<path d="M58.1416 14.8433C58.1416 12.5029 57.1441 10.4467 53.7673 10.4467C52.0343 10.4467 50.6579 10.9315 49.9113 11.3662L50.4629 13.244C51.1483 12.8094 52.2405 12.4528 53.2769 12.4528C54.9876 12.4528 55.2718 13.4224 55.2718 14.0465V14.1913C51.5384 14.1913 49.1813 15.4785 49.1813 18.1087C49.1813 19.7135 50.3849 21.2236 52.4689 21.2236C53.7506 21.2236 54.826 20.7109 55.4724 19.8918H55.5337C55.5337 19.8918 55.9572 21.675 58.3087 20.9951C58.1861 20.254 58.1471 19.4627 58.1471 18.5099V14.8433H58.1416ZM55.3554 17.3118C55.3554 17.5013 55.3387 17.6963 55.2885 17.8691C55.0712 18.5823 54.3301 19.1897 53.4051 19.1897C52.6305 19.1897 52.0232 18.7495 52.0232 17.8245C52.0232 16.4091 53.5834 16.0191 55.361 16.0246V17.3118H55.3554ZM3.08706 7.26494C3.37682 8.71932 4.19596 12.9376 4.19596 12.9376C4.54144 14.6706 4.85349 16.4927 5.0931 17.9304H5.13768C5.37171 16.4035 5.73392 14.9547 6.12955 13.166L7.50591 7.26494H10.5595L11.8467 13.3165C12.1867 14.9993 12.4541 16.2977 12.6659 17.8635H12.7105C12.9445 16.281 13.2454 14.9325 13.5797 13.205L14.8168 7.27051H17.7478L14.1203 21.0063C11.8077 21.5134 10.9217 20.5828 10.6041 19.1061C10.2865 17.6295 9.66797 14.8154 9.66797 14.8154C9.35035 13.2775 9.0996 12.1909 8.92685 10.6083H8.88227C8.63152 12.1742 8.37519 13.2719 7.9907 14.8099L6.46946 21.0063C4.11237 21.4743 3.29324 20.7778 2.83631 18.8888C2.44068 17.2561 0 7.26494 0 7.26494H3.08706ZM26.0617 14.8433C26.0617 12.5029 25.0643 10.4467 21.6875 10.4467C19.9545 10.4467 18.5781 10.9315 17.8314 11.3662L18.3775 13.244C19.0629 12.8094 20.1551 12.4528 21.1915 12.4528C22.9022 12.4528 23.1864 13.4224 23.1864 14.0465V14.1913C19.453 14.1913 17.0959 15.4785 17.0959 18.1087C17.0959 19.7135 18.2939 21.2236 20.3835 21.2236C21.6707 21.2236 22.7406 20.7109 23.387 19.8918H23.4483C23.4483 19.8918 23.8774 21.675 26.2233 20.9951C26.1007 20.254 26.0617 19.4627 26.0617 18.5099V14.8433ZM23.2756 17.3118C23.2756 17.5013 23.2589 17.6963 23.2087 17.8691C22.9914 18.5823 22.2503 19.1897 21.3253 19.1897C20.5507 19.1897 19.9378 18.7495 19.9378 17.8245C19.9378 16.4091 21.498 16.0191 23.2756 16.0246V17.3118ZM30.7146 21.0007H27.9285V7.26494H30.7146V21.0007ZM69.9493 7.26494V10.5136H72.3788V13.1437H69.9493V17.0221C69.9493 18.2758 70.2669 18.8832 71.2198 18.8832C71.6656 18.8832 71.9944 18.8275 72.2785 18.7551L72.312 20.9338C71.9275 21.0787 71.1195 21.2347 70.2948 21.2347C69.3252 21.2347 68.5172 20.8948 68.0269 20.371C67.4641 19.7748 67.2021 18.7941 67.2021 17.3954V7.26494H69.9493ZM62.527 10.6808V12.6255H62.605C63.1176 11.1377 64.338 10.4467 65.4134 10.4467C65.6809 10.4467 65.8314 10.469 66.0487 10.508V13.2106C65.7924 13.1716 65.5527 13.1382 65.2184 13.1382C64.0036 13.1382 63.1567 13.8458 62.9449 14.9547C62.9003 15.1832 62.8836 15.4284 62.8836 15.7181V21.0007H60.0083V10.6808H62.5326H62.527ZM35.3285 10.6808V12.085H35.3675C35.8411 11.3327 36.6269 10.4523 38.371 10.4523C39.7306 10.4523 40.7727 11.1879 41.2129 12.2967H41.2574C41.6364 11.7395 42.0766 11.3104 42.5669 11.0095C43.1465 10.6529 43.7873 10.4467 44.6008 10.4467C46.4397 10.4467 48.0668 11.7172 48.0668 14.9213V20.9951H45.2639V15.3392C45.2639 13.7177 44.7123 12.776 43.5644 12.776C42.723 12.776 42.11 13.3388 41.8815 14.0353C41.8035 14.2749 41.7645 14.5981 41.7645 14.8712V20.9951H38.9616V15.1163C38.9616 13.7344 38.4323 12.7815 37.3011 12.7815C36.3984 12.7815 35.83 13.4948 35.596 14.1022C35.4957 14.3641 35.4622 14.665 35.4622 14.9436V20.9951H32.6594V10.6808H35.3285Z" fill="white"/>
<path d="M86.3876 9.60531L85.8416 3.41447C85.8416 2.80151 86.5548 2.3 87.4575 2.3C88.3602 2.3 89.0791 2.80151 89.0791 3.41447L88.533 9.60531C88.4717 9.97866 88.0148 10.2628 87.4631 10.2628C86.9114 10.2628 86.4545 9.97308 86.3932 9.60531M82.9997 12.7983L77.3661 10.1737C76.8367 9.86721 76.7587 8.99793 77.21 8.2178C77.6614 7.43768 78.4527 7.06991 78.982 7.37638L84.0696 10.9482C84.3649 11.1878 84.3816 11.7228 84.1086 12.2076C83.83 12.6868 83.3563 12.9376 82.9997 12.8038M90.8399 10.9427L95.9275 7.37081C96.4568 7.06433 97.2481 7.43211 97.6994 8.21223C98.1508 8.99236 98.0728 9.86164 97.5434 10.1681L91.9098 12.7927C91.5588 12.9264 91.0795 12.6757 90.8009 12.1964C90.5223 11.7172 90.5446 11.1767 90.8399 10.9371M87.4575 18.0028C88.0092 18.0028 88.4661 18.287 88.5274 18.6603L89.0735 24.8512C89.0735 25.4641 88.3547 25.9656 87.452 25.9656C86.5492 25.9656 85.836 25.4641 85.836 24.8512L86.3821 18.6603C86.4434 18.287 86.9003 18.0028 87.452 18.0028M90.8065 16.0692C91.0851 15.59 91.5588 15.3392 91.9154 15.473L97.549 18.092C98.0784 18.3984 98.1564 19.2733 97.705 20.0534C97.2537 20.8335 96.4568 21.2013 95.933 20.8948L90.8455 17.3285C90.5557 17.0889 90.5335 16.5484 90.8065 16.0692ZM84.1086 16.0692C84.3872 16.5484 84.3649 17.0889 84.0696 17.3285L78.982 20.8948C78.4527 21.2013 77.6614 20.8335 77.21 20.0534C76.7587 19.2733 76.8367 18.404 77.3661 18.092L82.9997 15.473C83.3507 15.3392 83.83 15.59 84.1086 16.0692Z" fill="#FFC220"/>
<path d="M102.494 20.62V7.38C102.494 7.18 102.674 7 102.874 7H103.654C103.874 7 104.034 7.18 104.034 7.38V13.22H112.154V7.38C112.154 7.18 112.314 7 112.534 7H113.314C113.514 7 113.694 7.18 113.694 7.38V20.62C113.694 20.82 113.514 21 113.314 21H112.534C112.314 21 112.154 20.82 112.154 20.62V14.56H104.034V20.62C104.034 20.82 103.874 21 103.654 21H102.874C102.674 21 102.494 20.82 102.494 20.62ZM116.593 16.38C116.593 13.78 118.273 11.56 121.073 11.56C123.493 11.56 125.253 13.34 125.253 15.76C125.253 15.92 125.233 16.16 125.213 16.32C125.193 16.56 124.993 16.72 124.793 16.72H118.073C118.113 18.26 119.413 19.88 121.093 19.88C122.313 19.88 123.073 19.46 123.593 19.12C123.913 18.9 124.053 18.82 124.293 19.18L124.533 19.52C124.713 19.8 124.793 19.9 124.453 20.16C123.893 20.6 122.673 21.22 121.073 21.22C118.273 21.22 116.593 19.02 116.593 16.38ZM118.093 15.54H123.773C123.733 14.18 122.653 12.9 121.073 12.9C119.513 12.9 118.273 14.1 118.093 15.54ZM126.961 18.2C126.961 16.44 128.281 15.14 130.661 15.14C131.641 15.14 132.641 15.44 132.641 15.44C132.661 13.74 131.841 12.9 130.521 12.9C129.501 12.9 128.801 13.3 128.381 13.44C128.141 13.54 128.021 13.42 127.941 13.2L127.741 12.66C127.661 12.38 127.801 12.26 128.021 12.16C128.481 11.96 129.321 11.56 130.601 11.56C132.961 11.56 134.061 12.96 134.061 15.44V20.72C134.061 20.94 133.921 21.08 133.701 21.08C133.101 21.08 132.781 20.62 132.721 20C132.241 20.5 131.261 21.22 129.821 21.22C128.201 21.22 126.961 20.06 126.961 18.2ZM128.421 18.2C128.421 19.14 129.061 19.88 130.081 19.88C131.221 19.88 132.221 19.24 132.621 18.64V16.76C132.321 16.6 131.581 16.4 130.661 16.4C129.381 16.4 128.421 17.02 128.421 18.2ZM137.195 20.56V7.44C137.195 7.22 137.395 7 137.635 7H138.235C138.455 7 138.675 7.22 138.675 7.44V20.56C138.675 20.8 138.455 21 138.235 21H137.635C137.395 21 137.195 20.8 137.195 20.56ZM142.5 13.04H141.28C141 13.04 140.82 12.84 140.82 12.6V12.2C140.82 11.94 141 11.76 141.28 11.76H142.5V9.2C142.5 8.96 142.72 8.78 142.94 8.76L143.56 8.72C143.8 8.7 143.98 8.92 143.98 9.16V11.76H146.7C146.96 11.76 147.16 11.94 147.16 12.2V12.6C147.16 12.84 146.96 13.04 146.7 13.04H143.98V18.5C143.98 19.46 144.58 19.88 145.22 19.88C145.78 19.88 146.26 19.7 146.64 19.48C147 19.26 147.14 19.44 147.22 19.66L147.38 20.06C147.5 20.36 147.46 20.52 147.22 20.66C146.78 20.9 145.98 21.22 145.04 21.22C143.42 21.22 142.5 19.94 142.5 18.5V13.04ZM149.478 20.56V7.44C149.478 7.22 149.678 7 149.918 7H150.518C150.738 7 150.958 7.22 150.958 7.44V12.74C150.958 12.74 152.038 11.56 153.898 11.56C156.198 11.56 157.238 12.98 157.238 15.68V20.56C157.238 20.8 157.018 21 156.798 21H156.178C155.938 21 155.738 20.8 155.738 20.56V15.68C155.738 13.92 155.218 12.9 153.798 12.9C152.038 12.9 150.958 14.22 150.958 14.22V20.56C150.958 20.8 150.738 21 150.518 21H149.918C149.678 21 149.478 20.8 149.478 20.56Z" fill="white"/>
</svg>
