<svg width="694" height="804" viewBox="0 0 694 804" fill="none" xmlns="http://www.w3.org/2000/svg">
<path d="M68.9401 483.766C68.9401 495.515 68.9401 505.191 68.9401 514.867C68.9401 523.851 66.3239 531.454 56.5133 532.145C46.7028 532.836 42.1245 525.925 41.4704 516.94C39.5083 493.442 34.9301 469.252 38.8543 446.445C46.0487 402.212 47.3568 357.289 53.8972 313.056C69.5941 209.387 113.415 121.613 191.245 55.2644C221.331 29.6925 255.995 11.7231 293.929 2.73842C297.2 2.04729 300.47 0.665028 304.394 0.665028C311.588 -0.0261033 318.129 2.04729 320.745 10.3409C323.361 20.0167 318.129 25.5457 310.28 28.3103C301.778 31.0748 292.621 33.1482 284.119 35.9127C244.222 50.4265 210.866 74.6161 182.089 106.408C144.155 147.876 117.339 196.255 102.296 252.237C104.912 248.781 107.528 245.325 110.145 241.87C112.761 237.723 115.377 232.885 117.993 228.738C158.543 161.007 213.483 112.628 285.427 84.983C416.235 36.6038 560.123 93.9677 630.759 176.903C695.509 253.619 710.552 340.01 673.272 435.387C654.305 484.457 625.527 525.925 585.631 558.408C484.909 639.961 371.76 668.989 246.839 636.506C170.316 616.463 112.761 568.775 76.7885 494.133C75.4805 491.368 74.1724 489.295 72.8643 486.53C72.8643 486.53 72.2103 485.839 68.9401 483.766ZM341.02 616.463C405.116 615.772 468.558 597.802 526.767 561.863C580.398 528.689 620.949 483.766 644.494 422.946C676.542 340.702 664.115 266.059 608.522 199.02C582.361 167.228 549.659 145.111 513.686 128.524C385.495 68.3959 244.877 104.335 162.468 218.371C128.458 265.368 103.604 317.894 85.291 374.567C82.0208 384.243 81.3668 395.301 82.6749 404.977C95.1016 485.839 134.344 546.659 204.326 584.671C245.531 608.169 290.659 616.463 341.02 616.463Z" fill="#96D9F6" fill-opacity="0.31"/>
<path fill-rule="evenodd" clip-rule="evenodd" d="M533.931 80.8068C530.802 79.0997 527.184 78.5864 523.122 79.7747C510.559 83.4511 505.477 93.2892 504.791 104.952C503.789 121.981 512.302 142.937 519.912 153.353C520.272 153.847 520.963 153.953 521.454 153.593C521.948 153.233 522.057 152.541 521.697 152.048C514.311 141.939 506.026 121.607 506.997 105.08C507.627 94.3715 512.205 85.2726 523.744 81.8974C527.178 80.8904 530.23 81.3339 532.88 82.7704C531.968 84.5166 531.117 86.2656 530.33 88.0145C528.16 92.8429 524.916 106.249 526.127 116.106C526.997 123.177 530.152 128.419 537.047 128.235C540.88 128.131 543.652 125.744 545.348 121.945C547.683 116.723 547.945 108.723 546.302 101.058C544.935 94.6755 542.258 88.5361 538.458 84.4162C537.622 83.5125 536.735 82.7007 535.795 82.0034C548.905 58.0259 573.259 35.6048 598.268 26.1488C598.837 25.9313 599.127 25.2953 598.91 24.7235C598.695 24.1517 598.056 23.8644 597.487 24.0791C572.07 33.6913 547.312 56.4388 533.931 80.8068ZM534.737 83.9866C533.884 85.6296 533.086 87.2753 532.347 88.921C530.269 93.5486 527.161 106.391 528.322 115.836C529.033 121.632 531.337 126.176 536.988 126.025C539.956 125.944 542.015 123.984 543.331 121.044C544.776 117.808 545.329 113.426 545.097 108.754C544.746 101.66 542.578 93.9001 538.807 88.4078C537.613 86.6673 536.255 85.1582 534.737 83.9866Z" fill="#0071DC" stroke="#0071DC" stroke-width="3"/>
<path fill-rule="evenodd" clip-rule="evenodd" d="M578.506 62.3322C580.732 49.3337 589.229 35.4928 598.386 25.9085C598.807 25.4677 598.791 24.7676 598.35 24.3464C597.909 23.9252 597.209 23.9392 596.788 24.3799C587.343 34.2627 578.623 48.5582 576.328 61.9584C576.224 62.5581 576.629 63.13 577.231 63.2332C577.831 63.3364 578.403 62.9319 578.506 62.3322Z" fill="#0071DC" stroke="#0071DC" stroke-width="3"/>
<path fill-rule="evenodd" clip-rule="evenodd" d="M596.645 24.1467C587.111 29.5915 572.486 30.3447 561.825 27.586C561.234 27.4326 560.629 27.7868 560.478 28.3782C560.325 28.9695 560.679 29.572 561.27 29.7254C572.439 32.6152 587.753 31.7701 597.741 26.0658C598.271 25.7645 598.456 25.0867 598.154 24.5567C597.85 24.0267 597.175 23.8426 596.645 24.1467Z" fill="#0071DC" stroke="#0071DC" stroke-width="3"/>
<path fill-rule="evenodd" clip-rule="evenodd" d="M12.8316 431.563C16.2448 416.936 21.1745 410.481 27.1475 408.293C33.1206 406.1 39.8521 408.177 46.5836 410.258C51.2292 411.723 55.9697 413.216 60.331 413.485C64.8819 413.769 69.1485 412.726 72.8461 409.055C73.6994 408.174 74.458 406.744 74.9321 404.838C75.6905 402.252 76.1646 398.732 76.3542 394.602C77.3023 378.937 75.4065 354.28 77.6819 339.264C78.156 335.812 78.9139 332.884 79.9568 330.731C80.9049 328.857 82.0424 327.59 83.5594 327.268C84.7919 327.005 86.2143 327.374 88.0156 328.373C91.0496 330.08 94.6521 333.562 99.203 339.209C103.185 344.153 106.504 349.722 110.391 354.779C116.459 362.696 122.811 370.719 129.922 377.071C130.396 377.473 131.059 377.432 131.438 376.982C131.912 376.531 131.818 375.839 131.344 375.438C124.328 369.176 118.071 361.256 112.098 353.451C108.305 348.381 104.892 342.797 100.91 337.841C96.1698 331.898 92.2826 328.269 89.0591 326.472C86.7837 325.137 84.7919 324.775 83.0853 325.126C81.3788 325.489 79.8622 326.613 78.7245 328.416C77.2075 330.802 76.1642 334.455 75.5006 338.94C73.2251 354.01 75.1219 378.756 74.1738 394.477C73.9842 398.417 73.5097 401.778 72.8461 404.245C72.4668 405.708 71.9926 406.836 71.2341 407.513C68.1054 410.685 64.4084 411.545 60.4264 411.301C56.2547 411.042 51.7038 409.578 47.153 408.169C40.0422 405.938 32.7415 403.89 26.3893 406.239C20.037 408.592 14.3484 415.343 10.7456 431.068C10.556 431.656 10.9351 432.245 11.5039 432.381C12.0728 432.518 12.7368 432.152 12.8316 431.563Z" fill="#0071DC" stroke="#0071DC" stroke-width="3"/>
<path fill-rule="evenodd" clip-rule="evenodd" d="M9.68015 430.711C9.58534 430.558 9.39535 430.142 9.30054 429.799C8.73168 428.128 8.16338 425.536 7.97376 424.776C5.88794 418.048 4.18137 410.518 4.18137 403.311C4.18137 402.707 3.70676 402.218 3.1379 402.219C2.47423 402.22 2 402.711 2 403.315C2 410.73 3.80139 418.479 5.79239 425.402C6.07682 426.174 6.64568 428.805 7.21454 430.501C7.40416 431.111 7.59434 431.616 7.78395 431.933C7.97357 432.194 8.16282 432.373 8.35244 432.485C8.73168 432.777 9.3011 432.919 9.86996 432.9C10.5336 432.879 11.2919 432.659 12.0504 432.287C13.6622 431.56 15.5582 430.23 17.0751 429.178C17.9284 428.574 18.6871 428.058 19.1611 427.901C23.238 426.549 27.6936 427.99 31.1068 432.667C31.486 433.152 32.1503 433.258 32.6243 432.9C33.0984 432.542 33.193 431.856 32.9086 431.369C28.7369 425.76 23.4274 424.2 18.4973 425.823C17.2648 426.214 14.6104 428.372 12.2402 429.751C11.4817 430.146 10.8175 430.47 10.2486 430.629C10.059 430.675 9.96421 430.707 9.77459 430.712C9.77459 430.714 9.68015 430.718 9.68015 430.711Z" fill="#0071DC" stroke="#0071DC" stroke-width="3"/>
<path fill-rule="evenodd" clip-rule="evenodd" d="M125.587 111.604C127.253 114.725 129.11 116.963 130.648 118.594C145.416 134.125 165.063 128.191 180.457 117.49C184.583 114.625 189.939 108.838 191.965 102.857C193.391 98.6553 193.207 94.3664 190.073 90.8246C186.672 86.9506 180.98 85.5751 174.742 85.7151C165.719 85.9103 155.553 89.2388 150.054 92.0406C143.711 95.2743 134.468 101.317 126.234 108.38C124.702 104.872 123.461 100.42 123.055 94.7294C122.865 92.201 123.307 89.2839 124.194 86.2748C128.876 87.2195 133.953 87.2808 139.249 86.3158C143.699 85.4984 152.718 82.0293 158.501 77.1953C162.627 73.7415 165.076 69.5824 163.686 65.2225C161.95 59.8105 157.815 57.9146 153.015 58.005C146.257 58.1288 138.148 62.3501 134.348 65.641C129.93 69.4722 125.37 76.7435 122.888 83.9127C107.236 79.8877 96.7186 65.2857 98.9848 47.19C99.0464 46.651 98.6575 46.1517 98.118 46.0731C97.5669 46.0089 97.0619 46.4049 97.0002 46.9439C94.6064 66.0906 105.714 81.5645 122.272 85.843C121.336 89.048 120.859 92.1729 121.059 94.8747C121.511 101.142 122.925 105.992 124.658 109.755C123.138 111.104 121.661 112.488 120.249 113.9C113.903 120.237 109.002 127.024 107.809 133.106C105.051 147.16 113.095 158.113 124.603 164.235C136.003 170.295 150.765 171.584 161.49 166.538C161.989 166.302 162.208 165.7 161.97 165.204C161.732 164.708 161.138 164.491 160.638 164.727C150.433 169.53 136.383 168.245 125.543 162.469C114.811 156.756 107.201 146.597 109.768 133.496C110.914 127.706 115.633 121.338 121.663 115.314C122.919 114.059 124.23 112.824 125.587 111.604ZM124.812 84.3454C129.2 85.1966 133.943 85.2485 138.896 84.3393C143.132 83.5623 151.702 80.2755 157.223 75.6551C160.645 72.7918 162.939 69.4491 161.777 65.837C160.371 61.4179 156.958 59.9354 153.048 60.0081C146.759 60.1075 139.2 64.0856 135.655 67.1567C131.502 70.7533 127.174 77.598 124.812 84.3454ZM127.128 110.248C128.752 113.382 130.589 115.605 132.099 117.213C146.099 131.942 164.724 125.99 179.316 115.847C183.16 113.181 188.175 107.802 190.072 102.214C191.255 98.7122 191.191 95.1071 188.574 92.1435C185.527 88.6709 180.378 87.5875 174.792 87.7081C166.084 87.8965 156.264 91.1251 150.96 93.8245C144.617 97.0579 135.334 103.139 127.128 110.248Z" fill="#0071DC" stroke="#0071DC" stroke-width="3"/>
<path fill-rule="evenodd" clip-rule="evenodd" d="M97.9755 47.9882C98.4893 48.8699 99.9775 51.4016 100.213 51.7781C100.879 52.8285 101.361 53.2613 101.9 53.6458C102.338 53.9489 102.833 54.2037 103.579 54.8712C103.987 55.2443 104.628 55.1925 104.994 54.7792C105.36 54.366 105.314 53.7409 104.907 53.3678C104.222 52.7732 103.739 52.457 103.311 52.1855C102.823 51.8658 102.459 51.5978 101.903 50.7064C101.629 50.2754 100.365 47.7109 99.5553 46.6634C99.1348 46.1152 98.6843 45.8725 98.4317 45.8352C98.0701 45.7812 97.6309 45.8537 97.1502 46.1281C96.5347 46.4828 95.7283 47.2497 94.8056 48.0883C93.9404 48.8788 92.9446 49.7529 91.8512 50.3373C90.9286 50.823 89.9413 51.0923 88.9052 50.7813C88.3786 50.6188 87.8247 50.9053 87.6611 51.4334C87.4976 51.9615 87.7918 52.5262 88.3185 52.6886C89.8711 53.1775 91.3907 52.8401 92.7897 52.1001C94.028 51.4434 95.1659 50.471 96.1531 49.5663C96.7458 49.0284 97.281 48.5152 97.7387 48.1518C97.8119 48.0927 97.8937 48.0405 97.9755 47.9882Z" fill="#0071DC" stroke="#0071DC" stroke-width="3"/>
<path fill-rule="evenodd" clip-rule="evenodd" d="M604.198 294.788C604.011 293.676 603.869 292.576 603.778 291.476C603.641 289.826 603.726 288.163 603.677 286.513C603.656 285.813 603.572 283.988 603.606 283.726C603.912 281.438 605.758 281.088 606.298 281.026C606.559 280.988 609.242 280.688 609.821 283.663C610.531 287.301 610.758 290.963 610.507 294.551C611.093 297.601 612.096 300.638 613.419 303.388C618.687 314.326 628.724 315.388 639.599 315.288C641.272 315.263 642.661 316.576 642.748 318.238C642.836 319.913 641.591 321.363 639.926 321.513C633.847 322.101 623.062 326.976 619.333 332.051C618.553 333.113 618.099 335.676 617.499 338.188C616.662 341.676 615.666 345.126 614.549 346.576C614.382 346.801 612.346 349.101 611.738 349.438C610.278 350.238 609.109 349.776 608.446 349.351C607.782 348.926 607.031 348.088 606.731 346.701C606.417 345.251 606.682 342.276 606.633 341.638C606.456 339.326 605.993 334.788 605.049 330.888C604.541 328.788 603.998 326.851 603.101 325.888C599.778 322.326 594.466 322.851 589.992 323.438C589.478 323.501 588.964 323.576 588.452 323.638C586.631 324.176 584.697 324.576 582.653 324.813C579.567 325.176 579.059 322.338 579.032 322.151C578.974 321.738 578.761 319.613 581.087 318.763C581.341 318.676 583.213 318.263 583.934 318.101C584.939 317.876 585.956 317.701 586.976 317.538C597.512 314.263 603.234 305.063 604.198 294.788ZM607.814 306.151C611.792 314.376 617.828 318.351 624.983 320.151H624.982C620.514 322.488 616.451 325.413 614.297 328.351C613.479 329.463 612.729 331.701 612.053 334.213C611.687 331.876 611.192 329.388 610.538 327.263C609.794 324.838 608.793 322.826 607.676 321.626C605.518 319.313 602.811 318.026 599.899 317.388C603.384 314.301 606.027 310.451 607.814 306.151Z" fill="#FFC220" stroke="#FFC220"/>
<path fill-rule="evenodd" clip-rule="evenodd" d="M338.53 79.449C331.104 73.3446 325.086 66.075 320.565 57.6055C319.66 55.9185 317.556 55.275 315.852 56.1794C314.165 57.0837 313.521 59.1881 314.425 60.8925C319.399 70.162 325.973 78.1273 334.113 84.8229C335.591 86.0403 337.799 85.8316 339.017 84.3533C340.234 82.8577 340.008 80.6664 338.53 79.449Z" fill="#FFC220" stroke="#FFC220"/>
<path fill-rule="evenodd" clip-rule="evenodd" d="M334.57 55.6751C334.952 62.7012 335.3 69.7273 335.735 76.7534C335.857 78.6664 337.509 80.1273 339.422 80.0055C341.335 79.8838 342.796 78.2316 342.674 76.3186C342.239 69.3099 341.891 62.3012 341.509 55.2751C341.404 53.3673 339.752 51.8977 337.839 52.0056C335.926 52.1134 334.448 53.7569 334.57 55.6751Z" fill="#FFC220" stroke="#FFC220"/>
<path fill-rule="evenodd" clip-rule="evenodd" d="M360.389 57.1013C355.936 63.8144 350.893 70.0056 345.815 76.2665C344.598 77.7621 344.823 79.9535 346.319 81.1535C347.815 82.3709 350.006 82.1448 351.206 80.6491C356.424 74.2317 361.606 67.8491 366.197 60.9447C367.258 59.3447 366.806 57.1883 365.206 56.1274C363.623 55.0665 361.449 55.5013 360.389 57.1013Z" fill="#FFC220" stroke="#FFC220"/>
<path fill-rule="evenodd" clip-rule="evenodd" d="M377.635 82.0578C365.565 82.5969 352.748 82.6143 340.678 81.8491C338.765 81.7447 337.113 83.1882 336.991 85.1186C336.87 87.0317 338.331 88.6838 340.244 88.8056C352.557 89.5708 365.635 89.5534 377.948 89.0143C379.861 88.9273 381.357 87.2926 381.27 85.3796C381.183 83.4665 379.548 81.9708 377.635 82.0578Z" fill="#FFC220" stroke="#FFC220"/>
<path fill-rule="evenodd" clip-rule="evenodd" d="M334.103 84.2662C341.547 93.3793 349.251 102.318 356.155 111.849C357.286 113.397 359.46 113.744 361.025 112.614C362.573 111.484 362.921 109.31 361.79 107.762C354.799 98.127 347.008 89.0836 339.477 79.8662C338.26 78.3879 336.068 78.1619 334.59 79.3793C333.094 80.5967 332.886 82.788 334.103 84.2662Z" fill="#FFC220" stroke="#FFC220"/>
<path fill-rule="evenodd" clip-rule="evenodd" d="M336.357 86.9105C338.305 96.4062 338.844 105.484 338.983 115.102C339.001 117.015 340.583 118.545 342.497 118.528C344.427 118.493 345.957 116.928 345.923 114.997C345.783 104.928 345.21 95.4496 343.175 85.5018C342.775 83.6236 340.949 82.4061 339.053 82.8061C337.175 83.1887 335.957 85.0323 336.357 86.9105Z" fill="#FFC220" stroke="#FFC220"/>
<path fill-rule="evenodd" clip-rule="evenodd" d="M336.671 86.1456C331.037 97.4152 328.132 109.937 322.097 120.963C321.176 122.633 321.802 124.754 323.489 125.676C325.176 126.598 327.28 125.972 328.202 124.302C334.271 113.206 337.21 100.615 342.897 89.2587C343.75 87.5369 343.054 85.45 341.35 84.5804C339.628 83.7282 337.541 84.4239 336.671 86.1456Z" fill="#FFC220" stroke="#FFC220"/>
<path fill-rule="evenodd" clip-rule="evenodd" d="M339.772 83.5882C328.555 85.5708 317.355 86.4751 306.068 87.8142C304.155 88.0403 302.799 89.7621 303.025 91.6752C303.251 93.5882 304.973 94.9447 306.886 94.7186C318.294 93.3795 329.633 92.4403 340.99 90.4403C342.868 90.0925 344.138 88.2838 343.807 86.4055C343.46 84.5099 341.668 83.2403 339.772 83.5882Z" fill="#FFC220" stroke="#FFC220"/>
<path fill-rule="evenodd" clip-rule="evenodd" d="M347.578 78.3022C345.265 78.1978 343.074 78.0413 340.813 77.7108C338.9 77.4326 337.143 78.7543 336.865 80.65C336.587 82.5456 337.909 84.3196 339.804 84.5978C342.309 84.963 344.726 85.1369 347.265 85.2413C349.178 85.3283 350.813 83.8499 350.882 81.9195C350.969 80.0065 349.491 78.3891 347.578 78.3022Z" fill="#FFC220" stroke="#FFC220"/>
<path fill-rule="evenodd" clip-rule="evenodd" d="M152.128 518.442C154.492 517.599 156.981 516.479 158.9 514.858C161.179 512.933 162.105 510.452 162.728 507.842C163.527 504.488 163.846 500.915 164.815 497.556C165.174 496.308 165.864 495.837 166.161 495.627C166.909 495.099 167.666 494.957 168.378 495.01C169.222 495.072 170.382 495.391 171.144 496.806C171.253 497.008 171.394 497.317 171.489 497.739C171.558 498.049 171.603 499.018 171.677 499.418C171.86 500.401 172.014 501.385 172.158 502.375C172.637 505.667 172.913 508.464 174.429 511.489C176.485 515.596 178.545 518.109 181.339 519.222C184.041 520.298 187.271 520.096 191.398 519.252C191.791 519.157 192.18 519.075 192.564 519.009C194.384 518.691 196.123 519.885 196.481 521.698C196.838 523.509 195.682 525.275 193.878 525.673C193.502 525.756 193.131 525.835 192.764 525.907C187.187 527.287 180.73 532.215 176.978 536.53C175.822 537.86 174.128 541.58 172.401 543.952C171.126 545.703 169.694 546.857 168.491 547.264C167.685 547.539 167.006 547.497 166.445 547.358C165.629 547.157 164.953 546.715 164.433 546.013C164.151 545.628 163.888 545.113 163.763 544.455C163.704 544.139 163.697 543.334 163.698 542.97C163.346 541.759 162.915 540.577 162.601 539.355C161.853 536.44 160.384 534.595 158.639 532.157C157.007 529.875 155.254 528.441 152.684 527.297C152.349 527.215 149.652 526.555 148.699 526.176C147.308 525.62 146.644 524.689 146.404 524.188C145.995 523.337 145.953 522.594 146.034 521.974C146.155 521.059 146.566 520.276 147.294 519.645C147.745 519.252 148.419 518.87 149.322 518.684C150.019 518.538 151.868 518.454 152.128 518.442ZM167.953 513.691C168.078 513.969 168.211 514.249 168.353 514.532C171.364 520.547 174.732 523.905 178.825 525.534L178.962 525.587C176.224 527.62 173.745 529.893 171.851 532.071C171.071 532.968 170.038 534.831 168.922 536.742C167.908 533.446 166.25 531.117 164.166 528.202C162.573 525.977 160.904 524.303 158.853 522.939C160.445 522.122 161.963 521.165 163.285 520.048C165.487 518.188 166.942 516.032 167.953 513.691Z" fill="#FFC220" stroke="#FFC220"/>
<path d="M228.175 725.352C231.821 716.226 228.175 702.536 228.175 702.536H250.051C250.051 702.536 246.405 742.693 250.051 752.733C253.697 762.772 260.078 791.065 260.078 791.065C260.078 791.065 257.343 802.017 243.671 803.842C229.998 805.667 219.06 791.065 219.06 791.065V770.073C219.06 770.073 215.414 753.645 217.237 744.518C219.06 735.392 224.529 734.479 228.175 725.352Z" fill="#F7C9AA"/>
<path d="M317.224 358.89C323.697 361.196 338.219 363.587 351.901 363.935C362.118 364.196 369.837 358.632 378.022 362.279C386.207 365.926 394.464 376.541 391.413 376.915C388.362 377.29 382.373 372.599 379.136 371.445C375.899 370.292 371.322 370.854 371.508 372.382C371.604 373.178 376.482 377.91 382.631 381.095C388.288 384.026 394.055 383.132 397.104 385.52C400.152 387.908 393.083 390.665 393.269 392.193C393.455 393.721 396.691 394.874 393.826 396.776C390.96 398.679 382.961 396.56 382.961 396.56C381.435 396.747 382.476 398.945 377.899 399.507C373.322 400.069 369.9 397.388 364.096 394.224C358.293 391.061 351.077 382.643 347.84 381.49C344.603 380.337 307.019 389.603 292.36 383.65C277.702 377.697 269.816 370.138 269.558 361.641C269.3 353.145 279.423 347.25 288.092 348.512C296.761 349.773 310.75 356.584 317.224 358.89Z" fill="#E9B18A"/>
<path d="M264.635 697.06V673.33H289.246L284.688 700.71C284.688 700.71 288.334 708.742 299.272 715.313L299.273 715.313C310.211 721.885 326.617 731.741 328.44 741.78C330.263 751.82 322.06 750.907 309.299 749.994C296.538 749.082 294.715 741.78 284.688 737.217C274.662 732.654 258.254 727.178 258.254 727.178C258.254 727.178 255.52 717.138 258.254 711.662C260.989 706.186 264.635 703.448 264.635 697.06Z" fill="#DEB599"/>
<path d="M303.831 559.246C308.388 539.168 318.415 505.399 318.415 505.399L276.485 514.526L272.839 572.937L257.344 672.418C257.344 672.418 267.37 682.457 278.308 681.544C289.246 680.632 292.893 677.894 292.893 677.894V666.029C292.893 666.029 303.831 634.998 303.831 611.269C303.831 587.539 299.273 579.325 303.831 559.246Z" fill="#00559B"/>
<path opacity="0.5" d="M303.831 559.246C308.388 539.168 318.415 505.399 318.415 505.399L276.485 514.526L272.839 572.937L257.344 672.418C257.344 672.418 267.37 682.457 278.308 681.544C289.246 680.632 292.893 677.894 292.893 677.894V666.029C292.893 666.029 303.831 634.998 303.831 611.269C303.831 587.539 299.273 579.325 303.831 559.246Z" fill="#041E42"/>
<path d="M287.85 705.512C290.126 708.346 293.78 712.014 299.272 715.313C310.21 721.884 326.617 731.741 328.44 741.781C330.206 751.506 322.562 750.954 310.481 750.08C310.091 750.052 309.697 750.023 309.299 749.995C301.4 749.43 297.692 746.417 293.635 743.121C291.138 741.092 288.508 738.956 284.688 737.217C274.662 732.654 258.254 727.178 258.254 727.178C258.254 727.178 255.52 717.138 258.254 711.662C259.1 709.97 260.032 708.539 260.917 707.181C261.644 706.065 262.338 704.999 262.926 703.877L270.104 711.662L287.85 705.512Z" fill="#D9D9D9"/>
<path d="M248.527 741.062C248.708 746.061 249.164 750.289 250.051 752.733C253.697 762.772 260.078 791.065 260.078 791.065C260.078 791.065 257.343 802.017 243.671 803.842C229.998 805.667 219.06 791.065 219.06 791.065V770.073C219.06 770.073 215.414 753.645 217.237 744.519C217.672 742.34 218.315 740.629 219.092 739.163L223.618 744.519C223.618 744.519 226.352 738.13 234.556 738.13C242.759 738.13 244.582 744.519 244.582 744.519L248.527 741.062Z" fill="#E8E8E8"/>
<path d="M241.848 578.412C241.848 556.508 228.175 515.438 228.175 515.438L282.866 518.176C282.866 518.176 288.335 548.294 285.6 581.15C282.866 614.007 270.105 653.251 261.901 671.505C253.698 689.758 251.875 708.012 251.875 708.012C251.875 708.012 248.229 714.4 238.202 714.4C228.175 714.4 221.795 704.361 221.795 704.361C221.795 704.361 225.441 649.601 228.175 628.609C230.91 607.618 241.848 600.317 241.848 578.412Z" fill="#00559B"/>
<path d="M202.653 352.983C194.449 337.468 201.741 270.843 208.122 260.803C214.503 250.764 232.733 231.598 276.485 243.463C320.237 255.327 318.414 272.668 321.149 279.057C323.883 285.445 315.68 371.236 321.149 387.665C326.618 404.093 340.29 505.399 340.29 505.399L298.361 518.176V526.39C298.361 526.39 283.777 530.041 256.432 528.216C229.086 526.39 214.502 520.914 214.502 520.914C214.502 520.914 208.122 478.932 210.856 436.949C213.591 394.966 223.617 379.45 223.617 379.45C223.617 379.45 210.856 368.498 202.653 352.983Z" fill="#EFEFEF"/>
<path d="M255.849 297.871L252.854 288.278C252.653 287.634 253.134 286.98 253.809 286.98H270.529C270.967 286.98 271.354 287.264 271.484 287.682L274.478 297.275C274.679 297.919 274.198 298.573 273.524 298.573H256.803C256.366 298.573 255.979 298.289 255.849 297.871Z" fill="#00559B"/>
<path fill-rule="evenodd" clip-rule="evenodd" d="M261.133 292.779C261.133 293.026 261.264 293.222 261.424 293.222L263.047 293.069C263.144 293.055 263.22 292.928 263.22 292.779C263.22 292.627 263.144 292.499 263.047 292.481L261.424 292.333C261.264 292.333 261.133 292.529 261.133 292.779ZM262.463 295.105C262.384 295.251 262.481 295.468 262.685 295.592C262.889 295.719 263.117 295.697 263.197 295.548L263.886 294.002C263.917 293.904 263.851 293.774 263.727 293.697C263.602 293.621 263.46 293.628 263.398 293.708L262.463 295.105ZM263.197 290.002C263.117 289.857 262.889 289.835 262.685 289.959C262.481 290.086 262.384 290.303 262.463 290.449L263.398 291.846C263.46 291.926 263.602 291.933 263.727 291.857C263.851 291.78 263.917 291.65 263.886 291.552L263.197 290.002ZM265.271 295.548C265.354 295.697 265.582 295.719 265.786 295.592C265.99 295.468 266.087 295.251 266.008 295.105L265.073 293.708C265.008 293.628 264.866 293.621 264.741 293.697C264.616 293.774 264.551 293.904 264.585 294.002L265.271 295.548ZM264.585 291.552C264.551 291.65 264.616 291.78 264.741 291.857C264.866 291.933 265.008 291.926 265.073 291.846L266.008 290.449C266.087 290.303 265.99 290.086 265.786 289.959C265.582 289.835 265.354 289.857 265.271 290.002L264.585 291.552ZM265.248 292.775C265.248 292.928 265.321 293.055 265.418 293.069L267.041 293.222C267.204 293.222 267.335 293.026 267.335 292.779C267.335 292.529 267.204 292.333 267.041 292.333L265.418 292.481C265.321 292.499 265.248 292.627 265.248 292.775Z" fill="#FFC220"/>
<path d="M258.255 214.257C263.724 223.384 250.963 239.812 250.963 239.812C250.963 239.812 252.786 246.201 256.432 250.764C260.078 255.327 267.37 261.716 267.37 261.716L261.901 267.192C261.901 267.192 264.636 272.668 271.016 277.232C277.397 281.795 279.22 282.708 285.6 282.708C291.981 282.708 299.273 279.97 292.892 270.843C286.512 261.716 281.954 252.589 281.954 252.589C281.954 252.589 278.308 241.637 283.777 237.987C289.246 234.336 297.108 247.113 301.096 242.55C305.084 237.987 306.881 234.454 309.3 231.598C311.131 229.435 313.966 233.186 317.718 231.653C318.751 231.231 319.031 229.976 318.635 228.932C311.578 210.334 318.911 205.88 320.237 200.567C321.605 195.091 322.06 167.66 298.361 160.41C274.662 153.159 259.167 163.148 254.609 178.663C250.052 194.179 252.786 205.131 258.255 214.257Z" fill="#F7C9AA"/>
<path d="M313.52 201.803C312.808 201.464 310.712 201.232 309.018 201.686C307.325 202.141 306.38 202.789 305.005 203.818" stroke="#9B5627" stroke-width="3.39352" stroke-linecap="round"/>
<path d="M313.52 201.803C312.808 201.464 310.712 201.232 309.018 201.686C307.325 202.141 306.38 202.789 305.005 203.818" stroke="#844921" stroke-width="4.37511" stroke-linecap="round"/>
<path d="M296.281 229.94C296.49 230.701 297.684 232.441 299.135 233.427C300.586 234.414 301.693 234.706 303.369 235.075" stroke="#9C5620" stroke-width="4.37511" stroke-linecap="round"/>
<path fill-rule="evenodd" clip-rule="evenodd" d="M309.228 211.959C308.547 213.308 307.266 214.034 306.367 213.579C305.468 213.124 305.293 211.661 305.974 210.312C306.655 208.963 307.935 208.236 308.834 208.691C309.733 209.146 309.909 210.609 309.228 211.959Z" fill="black"/>
<path d="M259.419 217.398C260.923 215.895 262.654 214.234 264.634 212.432C270.217 207.35 276.082 206.796 282.388 206.2C287.407 205.725 292.704 205.224 298.36 202.393C304.905 199.116 313.129 191.277 319.588 184.418C317.426 175.039 311.746 164.505 298.36 160.41C274.661 153.159 259.165 163.148 254.608 178.663C250.05 194.179 252.785 205.131 258.254 214.257C258.837 215.231 259.213 216.287 259.419 217.398Z" fill="#9B5627"/>
<ellipse cx="19.437" cy="21.0275" rx="19.437" ry="21.0275" transform="matrix(0.877639 0.479323 -0.478382 0.878152 247.201 146.759)" fill="#9B5627"/>
<ellipse cx="6.75443" cy="9.29336" rx="6.75443" ry="9.29336" transform="matrix(0.868113 0.496367 -0.495413 0.868657 282.369 193.054)" fill="#F7C9AA"/>
<path d="M421.321 353.98C415.162 351.214 403.224 342.982 393.26 333.839C385.819 327.012 384.08 317.66 375.802 314.694C367.523 311.729 354.496 313.788 356.413 316.156C358.331 318.524 365.752 319.221 368.831 320.604C371.91 321.988 374.786 325.54 373.624 326.525C373.019 327.038 366.361 327.134 359.841 325.231C353.843 323.48 350.344 318.869 346.567 318.514C342.79 318.159 345.957 325.022 344.795 326.007C343.634 326.992 340.555 325.608 341.31 328.962C342.066 332.315 349.182 336.266 349.182 336.266C350.141 337.45 347.919 338.335 350.795 341.888C353.671 345.44 357.912 345.838 364.171 347.52C370.431 349.202 381.236 348.028 384.315 349.412C387.394 350.795 407.874 383.354 422.311 389.086C436.747 394.818 447.451 394.728 453.361 388.719C459.272 382.709 456.047 371.465 449.032 366.429C442.017 361.394 427.479 356.747 421.321 353.98Z" fill="#B57542"/>
<path d="M307.817 291.727L386.369 291.81C388.142 291.812 389.784 292.746 390.693 294.271L419.918 343.315C421.94 346.709 419.453 351.003 415.506 350.933L336.714 349.524C334.986 349.493 333.394 348.578 332.497 347.1L303.511 299.382C301.47 296.021 303.888 291.723 307.817 291.727Z" fill="#E8E8E8"/>
<path d="M302.469 293.409C302.757 293.344 303.062 293.313 303.379 293.321L385.072 293.192C386.324 293.224 387.472 293.897 388.112 294.973L419.033 346.856C419.834 348.202 419.656 349.742 418.863 350.852C418.577 350.916 418.275 350.947 417.961 350.939L335.936 349.522C334.691 349.492 333.547 348.829 332.902 347.764L302.314 297.428C301.496 296.078 301.671 294.526 302.469 293.409Z" fill="#828282"/>
<path d="M273.802 351.644C280.275 353.95 294.797 356.341 308.479 356.69C318.696 356.95 326.415 351.386 334.6 355.033C342.785 358.68 351.042 369.295 347.991 369.67C344.94 370.044 338.951 365.353 335.714 364.2C332.477 363.046 327.9 363.608 328.086 365.136C328.182 365.932 333.06 370.664 339.209 373.849C344.866 376.78 350.634 375.887 353.682 378.274C356.73 380.662 349.661 383.42 349.847 384.947C350.033 386.475 353.269 387.628 350.404 389.531C347.538 391.433 339.539 389.314 339.539 389.314C338.013 389.501 339.054 391.699 334.477 392.261C329.901 392.823 326.478 390.142 320.674 386.979C314.871 383.815 307.655 375.397 304.418 374.244C301.181 373.091 263.597 382.357 248.938 376.404C234.28 370.452 226.394 362.892 226.136 354.395C225.878 345.899 236.001 340.005 244.67 341.266C253.339 342.527 267.328 349.338 273.802 351.644Z" fill="#F7C9AA"/>
<path d="M201.352 349.702C201.733 350.961 202.165 352.062 202.652 352.983C210.856 368.499 223.617 379.451 223.617 379.451C223.617 379.451 223.601 379.475 223.571 379.525C231.018 380.403 241.933 381.634 249.139 382.189C260.989 383.101 281.953 381.276 281.953 381.276C281.953 381.276 280.13 368.499 281.953 356.634C283.776 344.769 291.068 334.73 291.068 334.73L215.413 342.944L201.352 349.702Z" fill="#EFEFEF"/>
<path d="M286.816 237.379C283.714 234.273 278.378 228.931 276.484 227.035C274.326 224.874 274.439 239.193 280.853 247.124C280.547 243.825 280.908 239.902 283.777 237.987C284.699 237.371 285.726 237.222 286.816 237.379Z" fill="#ECB691"/>
<path d="M479.105 696.314L479.649 689.78L443.994 689.623C443.994 689.623 437.391 701.289 431.487 704.555C425.583 707.821 407.64 709.143 404.61 711.709C401.58 714.275 404.531 723.92 411.755 727.343C418.979 730.765 431.719 735.588 448.652 735.123C465.586 734.657 485.16 736.291 487.647 728.981C490.133 721.67 485.085 703.392 483.454 700.436C481.823 697.48 479.105 696.314 479.105 696.314Z" fill="#DBDBDB"/>
<path d="M515.546 727.177C516.52 720.428 503.055 697.684 503.055 697.684L476.977 700.28C476.977 700.28 474.196 700.658 470.521 715.334C466.846 730.011 447.791 749.611 447.791 749.611C447.791 749.611 447.32 760.072 460.673 761.093C474.027 762.115 484.898 758.748 489.155 755.335C493.412 751.921 499.696 742.561 505.555 737.04C511.415 731.518 514.573 733.925 515.546 727.177Z" fill="#E8E8E8"/>
<path d="M432.583 533.601C428.934 509.801 428.547 480.635 428.547 480.635L498.769 471.461L487.656 548.538L485.788 604.77L486.483 686.592C486.483 686.592 480.346 692.658 470.869 693.746C461.392 694.835 451.139 693.979 451.139 693.979C451.139 693.979 449.978 617.757 448.814 597.924C447.65 578.09 436.233 557.401 432.583 533.601Z" fill="#686868"/>
<path d="M493.473 241.551C495.344 235.932 495.344 222.82 495.344 222.82L472.782 234.083L456.994 258.409L512.181 300.554C512.181 300.554 515.922 270.584 506.569 260.282C497.215 249.98 486.926 252.79 486.926 252.79C486.926 252.79 491.603 247.17 493.473 241.551Z" fill="#211E1F"/>
<path d="M458.729 530.744C455.46 506.614 455.41 457.474 455.41 457.474L518.926 473.421C518.926 473.421 503.628 541.658 503.786 556.759C503.944 571.86 514.377 593.126 515.289 613.795C516.201 634.464 510.722 698.533 510.722 698.533C510.722 698.533 505.538 702.072 496.143 702.403C486.749 702.734 481.612 699.651 481.612 699.651C481.612 699.651 487.03 663 485.269 650.007L478.857 602.676C477.6 593.395 461.998 554.874 458.729 530.744Z" fill="#9B9B9B"/>
<path d="M516.204 293.999C507.785 264.965 484.12 270.585 463.542 274.331C442.964 278.077 431.567 289.932 425.02 299.298C418.473 308.664 409.291 326.778 409.291 338.953C409.291 351.129 413.968 381.977 416.774 407.264C419.58 432.551 416.774 493.486 416.774 493.486C416.774 493.486 428.712 502.7 453.967 503.636C479.222 504.573 520.6 497.232 520.6 497.232C520.6 497.232 529.953 478.501 529.953 468.199C529.953 457.897 527.147 422.307 520.6 389.528C514.052 356.748 524.622 323.032 516.204 293.999Z" fill="#FFC220"/>
<path d="M458.657 363.292C452.268 361.114 439.614 354.034 428.841 345.863C420.796 339.761 416.086 329.736 407.568 327.557L408.609 340.416C408.055 340.983 401.434 341.702 394.766 340.416C388.63 339.233 384.716 334.969 380.923 334.969C377.129 334.969 380.923 341.505 379.858 342.595C378.793 343.684 375.599 342.595 376.664 345.863C377.728 349.131 385.182 352.399 385.182 352.399C386.247 353.488 384.117 354.578 387.312 357.846C390.507 361.114 394.766 361.114 401.155 362.203C407.544 363.292 418.193 361.114 421.387 362.203C424.582 363.292 448.009 393.794 462.917 398.152C477.825 402.509 488.473 401.42 493.797 394.884C499.122 388.348 494.862 377.454 487.408 373.097C479.954 368.739 465.046 365.471 458.657 363.292Z" fill="#CC8B57"/>
<path d="M481.315 273.394L440.158 308.983C440.158 308.983 438.288 296.808 438.288 291.189C438.288 285.569 450.861 281.102 451.796 276.11C452.732 271.119 451.919 262.042 448.178 260.169C444.436 258.296 435.482 260.282 431.74 259.037C427.999 257.792 429.362 245.076 429.362 241.329C429.362 237.583 419.231 238.431 422.849 233.359C426.468 228.287 432.257 222.401 432.257 219.591C432.257 216.782 430.805 214.082 430.805 210.336C430.805 206.59 430.805 200.034 432.675 195.351C434.546 190.668 445.771 176.62 471.961 180.366C498.151 184.112 500.022 209.399 498.151 221.574C496.28 233.75 468.441 223.939 476.638 254.354C484.834 284.769 481.315 273.394 481.315 273.394Z" fill="#CC8B57"/>
<path fill-rule="evenodd" clip-rule="evenodd" d="M441.064 226.024C441.064 227.575 440.226 228.834 439.193 228.834C438.159 228.834 437.322 227.575 437.322 226.024C437.322 224.473 438.159 223.214 439.193 223.214C440.226 223.214 441.064 224.473 441.064 226.024Z" fill="black"/>
<path d="M444.834 221.551C444.58 220.804 443.286 219.137 441.78 218.238C440.273 217.339 439.151 217.113 437.455 216.844" stroke="#AD764A" stroke-width="2" stroke-linecap="round"/>
<path d="M494.409 273.394L488.797 260.282L477.573 266.838L459.801 282.76L471.025 293.062L494.409 273.394Z" fill="#FFC220"/>
<path d="M430.992 203.742C432.863 201.434 432.856 198.652 436.598 196.404C436.598 196.404 440.94 207.998 451.795 216.693C462.65 225.388 477.949 234.832 483.322 240.587C484.553 239.329 485.865 238.081 487.181 236.828C492.201 232.051 497.283 227.215 498.149 221.574C500.02 209.399 498.149 184.112 471.959 180.366C445.769 176.62 434.544 190.668 432.674 195.351C431.675 197.851 431.209 200.886 430.992 203.742Z" fill="#211E1F"/>
<ellipse cx="6.02217" cy="7.83193" rx="6.02217" ry="7.83193" transform="matrix(0.821024 0.570894 -0.569912 0.821706 473.748 220.686)" fill="#CC8B57"/>
<path fill-rule="evenodd" clip-rule="evenodd" d="M438.174 244.953L430.086 245.131C430.086 245.131 430.645 250.23 433.251 250.641C436.588 251.17 438.174 244.953 438.174 244.953" fill="white"/>
</svg>
