<svg width="73" height="14" viewBox="0 0 73 14" fill="none" xmlns="http://www.w3.org/2000/svg">
<path d="M35.3477 3.43141V4.83417H35.3893C35.8651 4.08332 36.6498 3.19862 38.3961 3.19862C39.7547 3.19862 40.7975 3.93234 41.241 5.04491H41.2824C41.6644 4.48445 42.1017 4.05891 42.59 3.75908C43.1706 3.40271 43.8131 3.19862 44.6269 3.19862C46.4651 3.19862 48.0932 4.46817 48.0932 7.67461V13.7547H45.2889V8.09822C45.2889 6.47316 44.7381 5.53299 43.5906 5.53299C42.7489 5.53299 42.1377 6.0973 41.9073 6.79076C41.8276 7.0302 41.7904 7.35636 41.7904 7.62749V13.7547H38.988V7.87078C38.988 6.49008 38.4584 5.53299 37.3268 5.53299C36.4211 5.53299 35.8544 6.24615 35.6218 6.85565C35.5227 7.1165 35.4903 7.41654 35.4903 7.70031V13.7547H32.685V3.43141H35.3477ZM62.5626 3.43141V5.37858H62.6406C63.1537 3.89207 64.3757 3.19862 65.4501 3.19862C65.7196 3.19862 65.8678 3.21875 66.0843 3.26244V5.96495C65.826 5.9279 65.5872 5.89171 65.2533 5.89171C64.038 5.89171 63.1912 6.59951 62.9781 7.70673C62.9329 7.9346 62.9158 8.18346 62.9158 8.46872V13.7547H60.037V3.43141H62.5626ZM69.9923 0.0127382V3.26244H72.4224V5.89171H69.9923V9.76997C69.9923 11.0243 70.3108 11.6334 71.2614 11.6334C71.7095 11.6334 72.0369 11.5775 72.3215 11.5077L72.3575 13.6881C71.975 13.8303 71.1634 13.9873 70.3382 13.9873C69.3676 13.9873 68.5583 13.6485 68.0664 13.125C67.5038 12.5271 67.2403 11.5477 67.2403 10.1503V0.0127382H69.9923ZM30.7306 13.7547H27.94V0.0127382H30.7306V13.7547ZM23.2912 10.0668C23.2912 10.257 23.2749 10.4538 23.222 10.6256C23.0062 11.3409 22.2652 11.9454 21.3389 11.9454C20.5667 11.9454 19.9531 11.507 19.9531 10.5799C19.9531 9.16197 21.5141 8.76962 23.2912 8.77904V10.0668ZM26.0788 7.59601C26.0788 5.25629 25.0797 3.19862 21.7036 3.19862C19.9694 3.19862 18.5929 3.68541 17.8425 4.11887L18.3916 5.99943C19.0784 5.56618 20.1717 5.20767 21.207 5.20767C22.9212 5.2036 23.2017 6.1774 23.2017 6.8019V6.94967C19.4665 6.9441 17.1071 8.23636 17.1071 10.8712C17.1071 12.4796 18.3083 13.9873 20.3966 13.9873C21.6822 13.9873 22.7573 13.4743 23.4015 12.6528H23.4647C23.4647 12.6528 23.8915 14.4366 26.2424 13.7547C26.1188 13.012 26.0788 12.2202 26.0788 11.267V7.59601ZM3.0865 0.0127382C3.37412 1.46797 4.19394 5.68975 4.19394 5.68975C4.53767 7.42575 4.85506 9.24549 5.09321 10.6851H5.13518C5.36776 9.15704 5.73355 7.70866 6.12483 5.91505L7.5051 0.0127382H10.5586L11.849 6.06775C12.188 7.75235 12.4574 9.04975 12.6694 10.6166H12.7107C12.944 9.03454 13.2459 7.68339 13.5794 5.95382L14.8187 0.0127382H17.7496L14.1195 13.7547C11.8066 14.2614 10.921 13.3306 10.6023 11.8527C10.2847 10.375 9.6645 7.5611 9.6645 7.5611C9.3469 6.02063 9.09847 4.93397 8.92393 3.35239H8.88045C8.63203 4.91834 8.3731 6.01614 7.98675 7.55575L6.46321 13.7547C4.10228 14.2246 3.28332 13.5277 2.82887 11.6334C2.43952 10.0109 0 0.0127382 0 0.0127382H3.0865ZM55.3882 10.0668C55.3882 10.257 55.3712 10.4538 55.3192 10.6256C55.1029 11.3409 54.3619 11.9454 53.4359 11.9454C52.6634 11.9454 52.05 11.507 52.05 10.5799C52.05 9.16197 53.6113 8.76962 55.3882 8.77904V10.0668ZM58.1763 7.59601C58.1763 5.25629 57.1771 3.19862 53.8004 3.19862C52.0665 3.19862 50.6903 3.68541 49.9392 4.11887L50.489 5.99943C51.1752 5.56618 52.2695 5.20767 53.3044 5.20767C55.0172 5.2036 55.298 6.1774 55.298 6.8019V6.94967C51.5634 6.9441 49.2038 8.23636 49.2038 10.8712C49.2038 12.4796 50.4057 13.9873 52.495 13.9873C53.78 13.9873 54.8551 13.4743 55.4982 12.6528H55.5618C55.5618 12.6528 55.9887 14.4366 58.3397 13.7547C58.2162 13.012 58.1763 12.2202 58.1763 11.267V7.59601Z" fill="white"/>
</svg>
