<svg width="434" height="643" viewBox="0 0 434 643" fill="none" xmlns="http://www.w3.org/2000/svg">
<path opacity="0.3" d="M26.374 136.063C26.374 138.055 24.766 139.951 22.15 140.287L22.342 142.519C22.366 142.903 21.886 143.215 21.31 143.239C20.734 143.263 20.254 142.903 20.278 142.519L20.446 140.311C18.238 140.095 17.038 139.087 16.438 138.631C16.222 138.463 16.126 138.319 16.318 138.007L17.158 136.615C17.35 136.303 17.686 136.303 17.926 136.471C18.814 137.143 19.774 137.791 21.19 137.791C22.318 137.791 23.134 137.095 23.134 136.183C23.134 135.103 22.222 134.335 20.398 133.639C18.334 132.823 16.27 131.503 16.27 128.935C16.27 127.159 17.494 125.119 20.47 124.831L20.278 122.575C20.254 122.191 20.734 121.879 21.31 121.855C21.886 121.831 22.366 122.191 22.342 122.575L22.15 124.855C23.926 125.095 25.246 125.959 25.63 126.247C25.87 126.367 25.918 126.727 25.774 126.943L24.886 128.215C24.718 128.479 24.382 128.647 24.094 128.479C23.158 127.903 22.27 127.327 21.094 127.327C19.87 127.327 19.222 127.951 19.222 128.767C19.222 129.751 20.014 130.447 21.766 131.095C23.902 131.935 26.374 133.231 26.374 136.063ZM28.0802 139.231C28.0802 138.151 28.9922 137.239 30.0722 137.239C31.1522 137.239 32.0882 138.151 32.0882 139.231C32.0882 140.311 31.1522 141.223 30.0722 141.223C28.9922 141.223 28.0802 140.311 28.0802 139.231ZM40.6635 126.823H34.1595C33.9195 126.823 33.7035 126.607 33.7035 126.343V124.615C33.7035 124.375 33.9195 124.159 34.1595 124.159H44.4555C44.6955 124.159 44.9355 124.375 44.9355 124.615C44.9355 124.711 44.9355 124.783 44.8395 124.975L37.5675 140.287C37.3755 140.695 37.1355 140.959 36.7275 140.959H34.8795C34.5915 140.959 34.2795 140.887 34.2795 140.479C34.2795 140.287 34.3035 140.167 34.3995 139.975L40.6635 126.871V126.823ZM45.9379 139.015C45.7939 138.823 45.8179 138.559 45.9619 138.391L47.2339 137.167C47.4499 136.975 47.6659 136.975 47.8579 137.167C48.5299 137.839 49.3939 138.511 50.9059 138.511C52.4179 138.511 53.5219 137.551 53.5219 136.279C53.5219 134.695 52.3459 133.735 50.1139 133.735H48.7219C48.4579 133.735 48.2659 133.543 48.2659 133.255V131.695C48.2659 131.359 48.4339 131.191 48.7219 131.191H50.1139C52.1539 131.191 53.1859 130.207 53.1859 128.935C53.1859 127.591 52.0339 126.679 50.7859 126.679C49.4899 126.679 48.6979 127.351 48.2899 127.855C48.1219 128.047 47.8339 128.071 47.6179 127.879L46.4179 126.751C46.2019 126.583 46.2499 126.295 46.4179 126.103C47.1379 125.191 48.6739 123.919 51.0499 123.919C53.9299 123.919 56.3299 125.671 56.3299 128.455C56.3299 130.591 54.8899 131.767 53.7859 132.271V132.367C55.1059 132.871 56.7619 134.191 56.7619 136.375C56.7619 139.183 54.4819 141.199 51.0739 141.199C48.0019 141.199 46.4899 139.639 45.9379 139.015Z" fill="white"/>
<path fill-rule="evenodd" clip-rule="evenodd" d="M25.5464 154.87C25.5464 154.87 22.3615 147.247 14.2972 149.519C14.2972 149.519 17.3863 158.535 26.3364 156.507" fill="#82BA08"/>
<path fill-rule="evenodd" clip-rule="evenodd" d="M21.6631 147.901C21.399 147.669 21.2905 147.38 21.1375 147.193C20.3624 146.241 20.0904 146.381 19.4446 145.939C18.6695 145.409 19.8976 144.233 19.8976 144.233C19.8976 144.233 21.0815 142.993 21.6496 144.065C22.2196 145.136 22.0822 145.63 22.6405 146.411C22.6958 146.487 22.7753 146.606 22.8746 146.76C22.8746 146.76 26.662 153.782 27.7304 157.179C27.7304 157.179 27.5009 157.704 26.5231 157.513C26.5231 157.513 23.8812 149.861 21.6631 147.901Z" fill="#211E1F"/>
<path fill-rule="evenodd" clip-rule="evenodd" d="M18.8076 156.836C18.8076 156.836 13.0514 157.424 8.72541 163.154C4.39703 168.883 7.67402 179.782 13.1434 186.776C18.6103 193.768 20.2011 194.96 20.2011 194.96C20.2011 194.96 24.2584 198.687 28.8272 197.452C33.3967 196.218 34.3341 194.607 35.7483 194.261C37.1644 193.915 37.759 194.697 39.236 194.57C40.7111 194.444 44.1776 194.685 46.9181 190.493C49.6587 186.302 50.9939 168.435 48.3526 160.735C45.7094 153.034 35.6459 152.172 30.9617 154.351C26.2769 156.529 18.8076 156.836 18.8076 156.836Z" fill="#DD361C"/>
<path d="M142.351 304.342L154.272 274.566C154.272 274.566 77.2841 214.021 71.8204 208.562C66.3568 203.103 67.8469 191.192 62.3832 182.259C56.9196 173.327 51.4559 161.912 45.9923 164.89C40.5287 167.868 51.9355 178.289 49.9659 189.704C47.9962 201.118 45.9923 200.621 43.0121 199.629C40.032 198.637 40.032 194.17 40.032 194.17C40.032 194.17 40.032 189.207 45.9923 186.726C51.9526 184.245 44.5022 182.259 41.0253 182.259C37.5485 182.259 38.5419 189.704 33.0782 189.704C27.6146 189.704 26.6212 178.289 19.6675 175.808C12.7137 173.327 24.1377 191.192 19.6675 191.192C15.1972 191.192 11.2236 177.793 6.75338 174.319C2.28313 170.846 6.25697 192.185 13.7071 199.629C21.1573 207.073 51.9526 212.036 65.3634 225.435C78.7742 238.835 142.351 304.342 142.351 304.342Z" fill="#CC8B57"/>
<path opacity="0.1" d="M142.351 304.342L154.272 274.566C154.272 274.566 77.2839 214.021 71.8202 208.562C66.3566 203.103 67.8466 191.192 62.383 182.259C56.9193 173.327 51.4557 161.912 45.9921 164.89C40.5284 167.868 51.9352 178.289 49.9656 189.704C47.996 201.118 45.9921 200.621 43.0119 199.629C40.0317 198.637 40.0317 194.17 40.0317 194.17C40.0317 194.17 40.0317 189.207 45.9921 186.726C51.9524 184.245 44.502 182.259 41.0251 182.259C37.5482 182.259 38.5416 189.704 33.078 189.704C27.6143 189.704 26.6209 178.289 19.6672 175.808C12.7135 173.327 24.1375 191.192 19.6672 191.192C15.197 191.192 11.2234 177.793 6.75314 174.319C2.28288 170.846 6.25672 192.185 13.7069 199.629C21.157 207.073 51.9524 212.036 65.3632 225.435C78.7739 238.835 142.351 304.342 142.351 304.342Z" fill="#211E1F"/>
<path d="M244.494 65.5828C229.315 50.4161 211.835 46.2798 211.835 46.2798L215.055 68.3404C215.055 68.3404 224.715 97.7545 224.715 114.3C224.715 130.845 215.055 152.906 215.055 152.906L275.314 208.517C275.314 208.517 289.573 201.163 289.573 172.668C289.573 144.174 265.194 140.037 257.374 119.815C249.554 99.5928 259.674 80.7494 244.494 65.5828Z" fill="#211E1F"/>
<path d="M49.45 164.768C48.2974 164.274 47.1448 164.262 45.9922 164.89C43.2792 166.369 44.7259 169.683 46.6291 174.042C47.6123 176.295 48.7173 178.826 49.4335 181.527C50.0865 176.176 50.1887 169.695 49.45 164.768Z" fill="#DD361C"/>
<path d="M171.656 138.587C181.093 129.158 171.656 100.375 171.656 100.375C171.656 100.375 215.365 41.3185 209.405 76.0574C203.445 110.796 207.418 109.308 221.822 120.722C236.226 132.136 250.631 130.647 270.498 150.498C290.366 170.349 332.585 296.898 332.585 296.898L288.379 277.047L256.094 214.517C256.094 214.517 238.71 250.249 242.187 281.017C245.664 311.786 252.617 304.838 264.538 351.488C276.459 398.137 278.446 425.929 284.903 501.858L253.611 507.813L249.141 648.258H158.742C158.742 648.258 150.298 607.564 146.821 578.284C143.344 549.004 143.841 518.731 143.841 518.731L113.543 513.769C113.543 513.769 111.059 436.846 113.543 397.145C116.026 357.443 136.391 274.566 136.391 274.566C136.391 274.566 118.013 251.241 123.973 233.375C129.934 215.51 140.364 187.718 140.364 187.718C140.364 187.718 129.437 161.416 140.364 150.498C151.292 139.58 162.219 148.017 171.656 138.587Z" fill="#CC8B57"/>
<mask id="mask0_2949_240508" style="mask-type:alpha" maskUnits="userSpaceOnUse" x="112" y="63" width="221" height="586">
<path d="M171.656 138.587C181.093 129.158 171.656 100.374 171.656 100.374C171.656 100.374 210.895 41.318 206.921 73.0794C202.948 104.841 210.842 107.819 223.259 120.225C235.677 132.632 249.637 129.655 270.498 150.498C291.359 171.341 332.585 296.898 332.585 296.898L288.379 277.047L256.094 214.517C256.094 214.517 238.71 250.248 242.187 281.017C245.664 311.786 252.617 304.838 264.538 351.488C276.459 398.137 281.922 460.668 288.379 536.597L252.617 545.034L249.141 648.258H158.742C158.742 648.258 150.298 607.564 146.821 578.284C143.469 550.054 144.272 549.503 144.334 549.5L113.543 545.034C113.543 545.034 111.059 437.839 113.543 398.137C116.026 358.435 136.391 274.566 136.391 274.566C136.391 274.566 118.013 251.241 123.973 233.375C129.934 215.509 140.364 187.718 140.364 187.718C140.364 187.718 129.437 161.416 140.364 150.498C151.292 139.58 162.219 148.016 171.656 138.587Z" fill="#FCE4BE"/>
</mask>
<g mask="url(#mask0_2949_240508)">
<path opacity="0.25" d="M188.544 576.298L186.06 564.884H158.245C142.848 564.884 131.424 560.418 131.424 560.418L127.947 520.22L270.002 511.783V569.351C270.002 569.351 252.121 579.276 225.299 580.269C198.477 581.261 188.544 576.298 188.544 576.298Z" fill="#211E1F"/>
<path d="M231.756 132.434C246.658 117.545 294.34 122.509 294.34 122.509L312.221 157.744L328.612 232.681C328.612 232.681 328.612 246.576 308.744 253.028C288.876 259.48 273.975 259.678 273.975 259.678L261.558 232.681L287.386 318.536L341.029 533.421L251.624 544.041C251.624 544.041 229.273 546.523 198.975 549.004C168.676 551.486 142.848 549.004 142.848 549.004L91.1917 564.389L116.523 134.915L168.676 122.508C168.676 122.508 154.272 175.61 174.14 175.61C194.008 175.61 216.855 147.322 231.756 132.434Z" fill="#041E42"/>
</g>
<path fill-rule="evenodd" clip-rule="evenodd" d="M253.119 344.938C252.248 352.396 261.21 356.368 267.433 358.156C275.33 360.467 283.242 359.637 291.126 357.233C304.755 353.064 318.942 340.641 322.175 326.444C324.255 317.416 323.491 311.387 316.148 305.423C312.886 302.784 311.105 300.488 312.168 296.277C312.746 294.01 313.862 293.847 310.916 294.175C307.926 294.534 307.922 295.431 308.506 298.14C310.164 305.953 313.696 313.121 312.528 321.431C311.556 328.386 306.719 335.116 301.278 339.471C287.634 350.482 268.336 352.91 253.119 344.938Z" fill="#FFCD00"/>
<path fill-rule="evenodd" clip-rule="evenodd" d="M253.307 343.845C258.982 340.537 265.266 340.876 271.614 340.851C278.223 340.83 284.449 339.552 290.208 336.182C295.424 333.139 300.676 328.792 303.453 323.351C306.475 317.349 307.211 311.329 306.987 304.786C306.904 302.866 306.707 302.05 306.02 300.372C305.677 299.533 303.817 297.038 304.144 296.229C304.508 295.2 307.279 294.807 308.093 295.308C308.878 295.766 309.209 297.763 309.54 298.674C312.072 305.987 313.893 310.234 314.63 317.942C314.857 320.333 314.294 325.782 313.363 327.919C311.982 331.145 308.929 334.487 306.539 337.033C304.743 338.961 302.386 341.102 300.274 342.681C297.649 344.63 294.651 346.783 291.675 348.154C285.363 351.027 276.714 351.555 269.846 352.21C263.544 352.84 253.737 350.944 253.307 343.845Z" fill="#F9E741"/>
<path fill-rule="evenodd" clip-rule="evenodd" d="M253.998 343.541C254.145 344.648 253.755 345.822 253.007 346.679C252.202 345.469 252.513 344.096 253.998 343.541Z" fill="#333333"/>
<path fill-rule="evenodd" clip-rule="evenodd" d="M304.534 296.14C305.931 296.094 307.509 296.302 308.865 295.839C309.86 295.507 310.868 295.103 311.876 294.698C312.554 294.467 313.008 294.013 312.193 293.513C311.585 293.119 310.469 293.283 309.725 293.242C308.939 293.232 308.334 293.475 307.613 293.737C306.892 293.999 306.275 294.315 305.602 294.734C304.985 295.05 303.989 295.382 304.534 296.14Z" fill="#333333"/>
<path fill-rule="evenodd" clip-rule="evenodd" d="M269.114 373.331C271.418 381.8 282.873 382.212 290.404 381.446C299.979 380.519 308.204 376.179 315.71 370.142C328.683 359.693 338.665 340.048 335.988 323.24C334.312 312.541 330.857 306.334 320.291 303.056C315.603 301.612 312.67 299.896 311.988 294.865C311.628 292.155 312.768 291.492 309.714 293.129C306.627 294.818 307.013 295.793 308.827 298.478C314.029 306.233 320.985 312.474 323.337 321.996C325.312 329.964 322.995 339.369 318.988 346.459C308.98 364.337 289.099 375.363 269.114 373.331Z" fill="#FFCD00"/>
<path fill-rule="evenodd" clip-rule="evenodd" d="M268.843 372.064C273.558 366.007 280.525 363.643 287.402 360.856C294.565 357.958 300.763 353.865 305.545 347.704C309.878 342.135 313.684 335.136 314.326 328.026C314.991 320.2 313.168 313.35 310.074 306.349C309.148 304.302 308.578 303.502 307.102 301.981C306.364 301.22 303.259 299.322 303.261 298.302C303.209 297.028 306.043 295.397 307.145 295.585C308.196 295.742 309.426 297.763 310.182 298.608C316.115 305.44 319.941 309.256 324.098 317.297C325.386 319.793 327.148 325.948 327.069 328.671C326.976 332.772 325.119 337.725 323.635 341.527C322.527 344.399 320.901 347.746 319.298 350.378C317.299 353.634 314.983 357.273 312.352 360.054C306.754 365.916 297.599 370.249 290.432 373.946C283.868 377.37 272.401 379.578 268.843 372.064Z" fill="#F9E741"/>
<path fill-rule="evenodd" clip-rule="evenodd" d="M269.459 371.433C270.101 372.571 270.19 374.014 269.751 375.268C268.351 374.306 268.09 372.681 269.459 371.433Z" fill="#333333"/>
<path fill-rule="evenodd" clip-rule="evenodd" d="M303.646 298.035C305.142 297.379 306.944 296.918 308.214 295.826C309.15 295.033 310.067 294.156 310.985 293.279C311.619 292.733 311.914 292.044 310.812 291.856C309.981 291.693 308.841 292.356 308.016 292.635C307.158 292.966 306.608 293.493 305.94 294.09C305.272 294.688 304.74 295.299 304.192 296.046C303.66 296.657 302.724 297.45 303.646 298.035Z" fill="#333333"/>
<path fill-rule="evenodd" clip-rule="evenodd" d="M304.411 380.45C309.914 387.29 320.578 383.086 327.174 379.373C335.578 374.694 341.377 367.429 345.839 358.896C353.543 344.134 354.822 322.141 345.635 307.81C339.813 298.677 334.16 294.371 323.163 295.592C318.288 296.144 314.912 295.744 312.272 291.407C310.856 289.068 311.636 288.004 309.493 290.726C307.34 293.508 308.084 294.247 310.822 295.982C318.697 301.007 327.572 303.944 333.542 311.729C338.544 318.241 340.188 327.785 339.356 335.884C337.345 356.267 323.541 374.32 304.411 380.45Z" fill="#FFCD00"/>
<path fill-rule="evenodd" clip-rule="evenodd" d="M303.654 379.398C305.549 371.962 310.988 367.01 316.174 361.706C321.578 356.187 325.619 349.958 327.533 342.401C329.274 335.565 329.959 327.629 327.698 320.858C325.174 313.421 320.758 307.873 315.118 302.696C313.449 301.19 312.607 300.685 310.644 299.881C309.663 299.48 306.057 298.982 305.65 298.046C305.092 296.899 307.037 294.272 308.122 294.004C309.148 293.727 311.085 295.087 312.116 295.559C320.291 299.447 325.326 301.414 332.357 307.119C334.537 308.891 338.619 313.827 339.637 316.354C341.194 320.149 341.477 325.429 341.639 329.506C341.774 332.582 341.624 336.299 341.21 339.351C340.682 343.134 340.018 347.394 338.72 350.995C335.937 358.605 329.283 366.236 324.194 372.49C319.551 378.251 309.925 384.86 303.654 379.398Z" fill="#F9E741"/>
<path fill-rule="evenodd" clip-rule="evenodd" d="M303.966 378.573C305.01 379.359 305.67 380.646 305.77 381.971C304.101 381.649 303.212 380.264 303.966 378.573Z" fill="#333333"/>
<path fill-rule="evenodd" clip-rule="evenodd" d="M305.896 297.648C307.004 296.448 308.472 295.305 309.198 293.797C309.738 292.696 310.228 291.526 310.717 290.355C311.08 289.601 311.074 288.852 309.989 289.12C309.162 289.303 308.382 290.366 307.738 290.952C307.085 291.599 306.791 292.301 306.418 293.116C306.046 293.931 305.803 294.703 305.6 295.607C305.357 296.38 304.817 297.48 305.896 297.648Z" fill="#333333"/>
<path fill-rule="evenodd" clip-rule="evenodd" d="M287.758 425.114C297.866 415.253 308.3 404.603 318.836 393.345C379.098 328.963 419.782 269.142 409.711 259.731C399.638 250.323 342.623 294.885 282.364 359.264C271.83 370.525 261.892 381.642 252.721 392.375L287.758 425.114Z" fill="#CC8B57"/>
<path fill-rule="evenodd" clip-rule="evenodd" d="M383.497 303.387C383.497 303.387 377.805 302.462 373.486 298.431C369.172 294.399 367.867 288.782 367.867 288.782C367.867 288.782 373.559 289.707 377.876 293.741C382.195 297.773 383.497 303.387 383.497 303.387Z" fill="#F8E6A5"/>
<path fill-rule="evenodd" clip-rule="evenodd" d="M374.446 320.842C374.446 320.842 365.922 319.46 359.458 313.42C352.997 307.382 351.043 298.977 351.043 298.977C351.043 298.977 359.569 300.362 366.03 306.399C372.494 312.439 374.446 320.842 374.446 320.842Z" fill="#F8E6A5"/>
<path fill-rule="evenodd" clip-rule="evenodd" d="M292.649 429.684L374.217 342.538L369.773 342.611L369.573 338.574L365.522 338.641L365.32 334.602L361.272 334.672L361.07 330.632L357.022 330.702L356.82 326.662L352.772 326.732L352.572 322.69L348.524 322.759L348.322 318.72L344.274 318.789L344.072 314.75L340.021 314.817L339.824 310.778L335.773 310.845L335.569 306.803L331.523 306.875L331.3 302.449L249.743 389.592L292.649 429.684Z" fill="#FFC220"/>
<path d="M186.802 336.022C186.156 332.445 188.906 329.155 192.541 329.155H390.178C393.813 329.155 396.562 332.445 395.917 336.022L379.234 428.534C378.107 434.782 372.669 439.327 366.32 439.327H216.398C210.05 439.327 204.611 434.782 203.485 428.534L186.802 336.022Z" fill="#0071DC"/>
<path d="M161.389 6.01843C136.736 13.9727 122.968 33.0297 125.823 49.2054C128.649 65.2193 134.898 65.6369 131.816 78.057L130.878 81.6803C128.319 91.4349 127.859 92.0552 126.954 94.4365C126.29 96.1841 128.054 98.5898 129.904 98.8748C131.754 99.1598 136.722 97.7327 138.988 98.698C141.255 99.6633 141.191 100.439 144.569 106.962C150.736 117.616 153.119 118.122 157.594 117.38C162.07 116.637 160.399 114.999 168.392 113.04C176.386 111.081 179.31 113.766 181.151 116.686C185.776 124.019 186.661 134.527 183.806 148.209L225.246 125.684C225.246 125.684 220.279 124.195 206.372 106.962C192.464 89.7289 213.749 63.1828 215.08 45.7062C216.659 24.978 197.5 6.76821 177.259 4.18492C171.902 3.50115 166.549 4.35366 161.389 6.01843Z" fill="#CC8B57"/>
<ellipse cx="2.58029" cy="3.78683" rx="2.58029" ry="3.78683" transform="matrix(0.947557 -0.319586 0.320076 0.947392 139.318 72.1699)" fill="black"/>
<path d="M145.278 104.262C145.278 104.262 148.592 105.217 150.695 104.12C152.797 103.024 153.687 99.8776 153.687 99.8776" stroke="#844921" stroke-width="1.458" stroke-linecap="round"/>
<path d="M175.577 72.5822C175.577 60.1754 193.954 51.2426 189.484 77.0487L206.372 94.4182C206.372 84.4927 213.749 63.1826 215.08 45.706C216.659 24.9777 197.5 6.76798 177.259 4.18469C171.902 3.50092 166.549 4.35343 161.389 6.0182C139.927 12.9429 126.715 28.2822 125.538 42.8096C125.538 42.8096 129.322 57.1519 147.762 64.6419C166.201 72.1318 175.577 72.5822 175.577 72.5822Z" fill="#211E1F"/>
<path fill-rule="evenodd" clip-rule="evenodd" d="M340.517 356.946C338.91 356.946 337.634 358.122 337.634 359.546L338.626 374.059C338.721 374.926 339.548 375.607 340.517 375.607C341.51 375.607 342.337 374.926 342.456 374.059L343.425 359.546C343.425 358.122 342.148 356.946 340.517 356.946ZM325.366 368.83C324.421 368.118 323.003 368.984 322.199 370.81C321.372 372.636 321.514 374.678 322.483 375.39L332.552 381.548C333.19 381.827 334.041 381.239 334.537 380.125C335.034 379.011 334.987 377.742 334.467 377.185L325.366 368.83ZM358.599 375.39C359.545 374.678 359.687 372.636 358.883 370.81C358.056 368.984 356.638 368.118 355.692 368.83L346.592 377.185C346.072 377.742 346.025 379.011 346.521 380.125C347.017 381.239 347.868 381.827 348.507 381.548L358.599 375.39ZM322.483 393.927C321.514 394.669 321.372 396.712 322.199 398.538C323.003 400.363 324.421 401.23 325.366 400.518L334.467 392.163C334.987 391.575 335.034 390.306 334.537 389.192C334.041 388.078 333.19 387.49 332.552 387.799L322.483 393.927ZM348.507 387.799C347.868 387.49 347.017 388.078 346.521 389.192C346.025 390.306 346.072 391.575 346.592 392.163L355.692 400.518C356.638 401.23 358.056 400.363 358.883 398.538C359.687 396.712 359.545 394.669 358.599 393.927L348.507 387.799ZM340.541 393.741C339.548 393.741 338.721 394.391 338.626 395.257L337.634 409.771C337.634 411.226 338.91 412.402 340.517 412.402C342.148 412.402 343.425 411.226 343.425 409.771L342.456 395.257C342.337 394.391 341.51 393.741 340.541 393.741Z" fill="#FFC300"/>
<path d="M338.113 342.554C338.113 344.165 339.419 345.47 341.029 345.47C342.639 345.47 343.945 344.165 343.945 342.554H338.113ZM343.945 342.554V283.809H338.113V342.554H343.945ZM332.281 272.146H258.882V277.978H332.281V272.146ZM247.218 283.809V329.155H253.05V283.809H247.218ZM258.882 272.146C252.44 272.146 247.218 277.368 247.218 283.809H253.05C253.05 280.589 255.661 277.978 258.882 277.978V272.146ZM343.945 283.809C343.945 277.368 338.723 272.146 332.281 272.146V277.978C335.502 277.978 338.113 280.589 338.113 283.809H343.945Z" fill="black"/>
<path d="M159.476 246.196C159.476 258.575 147.748 268.611 133.281 268.611C118.813 268.611 107.085 258.575 107.085 246.196C107.085 233.816 117.517 228.833 131.984 228.833C150.528 228.833 159.476 233.816 159.476 246.196Z" fill="#EE3E23"/>
<ellipse cx="3.75436" cy="4.19395" rx="3.75436" ry="4.19395" transform="matrix(0.890752 0.454489 -0.455105 0.890438 113.633 237.167)" fill="#FFA98F"/>
<path d="M127.445 234.793C125.24 238.616 123.684 245.003 123.166 246.454C123.166 246.454 126.732 242.697 129.26 240.494C131.789 238.292 136.004 236.478 136.004 236.478L144.822 249.046C144.822 249.046 148.194 244.511 147.027 240.494C145.859 236.478 141.58 233.886 141.58 233.886C141.58 233.886 147.027 230.647 150.398 230.647H161.162C161.162 230.647 152.019 225.335 147.869 225.464C143.72 225.594 137.43 227.667 137.43 227.667C137.43 227.667 136.912 224.817 134.707 221.772C132.502 218.727 128.223 216.006 128.223 216.006L130.168 228.574C130.168 228.574 122.128 223.586 117.33 223.391C112.532 223.197 108.901 230.647 108.901 230.647C108.901 230.647 110.198 228.574 115.385 228.574C120.572 228.574 127.445 234.793 127.445 234.793Z" fill="#1D5F02"/>
<path d="M246.16 277.046C260.068 277.046 271.989 273.573 292.85 275.062C313.711 276.551 327.618 282.505 327.618 282.505C327.618 282.505 333.579 296.897 333.579 303.349C333.579 309.8 303.777 311.289 270.498 311.289C237.22 311.289 169.669 290.942 169.669 290.942C169.669 290.942 128.444 282.505 118.013 277.046C107.582 271.587 102.615 262.655 100.132 252.729C97.6485 242.804 132.417 269.975 141.854 267.617C151.292 265.26 133.907 259.18 130.927 247.27C127.947 235.36 145.828 250.248 155.265 254.714C164.702 259.181 164.206 269.106 173.643 271.587C183.08 274.069 232.253 277.046 246.16 277.046Z" fill="#CC8B57"/>
<path d="M195.448 325.81L214.025 345.143C215.475 346.653 217.504 347.466 219.595 347.376L266.946 345.336C270.847 345.168 273.922 341.957 273.922 338.053V319.477C273.922 317.717 273.286 316.018 272.131 314.691L266.52 308.243C264.936 306.423 262.555 305.505 260.16 305.79L247.632 307.28C244.874 307.608 242.169 306.34 240.657 304.01L238.863 301.247C235.645 296.291 228.177 297.021 225.981 302.507L223.895 307.716C222.088 312.23 216.451 313.743 212.626 310.741L207.736 306.902C203.72 303.749 197.792 305.594 196.274 310.468L193.745 318.591C192.955 321.128 193.608 323.894 195.448 325.81Z" fill="#82BA08"/>
<path d="M206.74 329.026L214.753 339.881C216.213 341.859 218.572 342.968 221.026 342.83L239.722 341.782C243.584 341.566 246.604 338.372 246.604 334.504V324.751C246.604 323.308 246.176 321.898 245.374 320.699L244.099 318.792C242.523 316.436 239.725 315.206 236.924 315.64L233.888 316.11C232.067 316.392 230.273 315.464 229.45 313.815C227.744 310.394 222.737 310.806 221.613 314.46L221.291 315.507C220.316 318.678 216.303 319.652 213.983 317.28C211.575 314.821 207.401 315.975 206.601 319.323L205.61 323.465C205.148 325.395 205.562 327.43 206.74 329.026Z" fill="#709608"/>
<path d="M186.802 336.022C186.156 332.445 188.906 329.155 192.541 329.155H287.882L297.816 439.327H216.398C210.05 439.327 204.611 434.782 203.485 428.534L186.802 336.022Z" fill="#0071DC"/>
<path opacity="0.3" d="M186.802 336.022C186.156 332.445 188.906 329.155 192.541 329.155H287.882L297.816 439.327H216.398C210.05 439.327 204.611 434.782 203.485 428.534L186.802 336.022Z" fill="#211E1F"/>
<mask id="mask1_2949_240508" style="mask-type:alpha" maskUnits="userSpaceOnUse" x="187" y="272" width="143" height="58">
<path d="M187.184 322.474C186.566 326.04 189.311 329.302 192.93 329.302H329.2V272H206.977C200.594 272 195.138 276.592 194.048 282.881L187.184 322.474Z" fill="#211E1F"/>
</mask>
<g mask="url(#mask1_2949_240508)">
<rect x="209.437" y="296.514" width="50.3161" height="62.8951" transform="rotate(-21.668 209.437 296.514)" fill="#0071DC"/>
<rect x="225.23" y="336.264" width="50.3161" height="20.1264" transform="rotate(-21.668 225.23 336.264)" fill="#82BA08"/>
<rect opacity="0.5" x="238.391" y="301.251" width="22.6423" height="2.51581" rx="1.2579" transform="rotate(-21.668 238.391 301.251)" fill="white"/>
<rect opacity="0.5" x="240.25" y="305.932" width="12.579" height="2.51581" rx="1.2579" transform="rotate(-21.668 240.25 305.932)" fill="white"/>
<rect opacity="0.5" x="245.821" y="319.954" width="20.1264" height="1.2579" rx="0.628951" transform="rotate(-21.668 245.821 319.954)" fill="white"/>
<path d="M221.575 299.812L232.863 295.328L245.195 326.367C246.123 328.705 244.981 331.353 242.643 332.281L239.822 333.402C237.484 334.331 234.836 333.189 233.907 330.851L221.575 299.812Z" fill="#545454"/>
<path d="M225.81 298.128L228.632 297.007L238.722 322.403C239.031 323.182 238.651 324.065 237.872 324.374C237.092 324.684 236.21 324.303 235.9 323.524L225.81 298.128Z" fill="#EFEFEF"/>
<path d="M221.575 299.812L223.524 299.038L233.974 325.341C234.188 325.879 233.925 326.488 233.387 326.702C232.849 326.916 232.239 326.653 232.026 326.115L221.575 299.812Z" fill="#EFEFEF"/>
<path d="M231.317 295.943L233.265 295.169L243.715 321.472C243.929 322.01 243.666 322.619 243.128 322.833C242.59 323.047 241.981 322.784 241.767 322.246L231.317 295.943Z" fill="#EFEFEF"/>
<path d="M223.893 305.649L235.583 301.004L249.384 335.739C250.312 338.077 249.17 340.725 246.833 341.653L243.608 342.935C241.27 343.863 238.622 342.721 237.693 340.384L223.893 305.649Z" fill="white"/>
<path d="M234.229 311.119L231.408 312.24L232.258 310.269L234.229 311.119Z" fill="#EE3E23"/>
<rect x="225.498" y="309.687" width="12.1453" height="0.759079" transform="rotate(-21.668 225.498 309.687)" fill="#EE3E23"/>
<rect x="256.196" y="277.935" width="7.54742" height="62.8951" transform="rotate(-21.668 256.196 277.935)" fill="#00559B"/>
<rect width="7.54742" height="20.1264" transform="matrix(-0.929339 0.369227 0.369227 0.929339 279.003 314.897)" fill="#709608"/>
<path d="M325.867 299.44C325.293 294.963 311.897 292.985 295.946 295.024C279.995 297.062 267.53 302.345 268.104 306.822L273.341 347.684C273.915 352.161 287.311 354.139 303.262 352.1C319.213 350.062 331.679 344.779 331.105 340.302L325.867 299.44Z" fill="#F8E6A5"/>
<g opacity="0.5">
<mask id="mask2_2949_240508" style="mask-type:alpha" maskUnits="userSpaceOnUse" x="268" y="294" width="64" height="59">
<path d="M325.864 299.441C325.289 294.963 311.894 292.985 295.944 295.022C279.994 297.059 267.53 302.341 268.104 306.819L273.345 347.683C273.919 352.161 287.314 354.14 303.264 352.102C319.214 350.065 331.678 344.783 331.104 340.305L325.864 299.441Z" fill="#F8E6A5"/>
</mask>
<g mask="url(#mask2_2949_240508)">
<path d="M305.52 333.686C325.315 318.301 328.578 297.445 328.578 297.445L258.159 306.44L266.32 346.935C266.32 346.935 285.724 349.072 305.52 333.686Z" fill="#E29700"/>
</g>
</g>
<path d="M326.104 296.117C325.529 291.638 311.842 289.696 295.532 291.78C279.222 293.864 266.466 299.184 267.04 303.663L267.456 306.907C268.03 311.386 281.717 313.327 298.027 311.244C314.337 309.16 327.094 303.84 326.519 299.361L326.104 296.117Z" fill="#E29700"/>
<ellipse cx="29.7722" cy="8.17657" rx="29.7722" ry="8.17657" transform="matrix(0.991937 -0.126734 0.12717 0.991881 266 295.554)" fill="#FFC220"/>
<rect width="33.3708" height="20.272" rx="8.64392" transform="matrix(0.991932 -0.126768 0.127136 0.991885 282.305 319.839)" fill="#FFF7DB"/>
</g>
<path fill-rule="evenodd" clip-rule="evenodd" d="M161 63.3647V66.8863C160.529 67.0628 160.109 67.1823 159.734 67.2887C158.612 67.6073 157.899 67.8099 157.476 69.0773C157.307 69.5863 157.215 70.6657 157.096 72.0696C156.722 76.4947 156.074 84.144 151.841 87.3191C149.023 89.4327 143.385 89.9018 138.454 86.6139C133.612 83.3859 133.276 77.7884 132.98 72.8503C132.931 72.0401 132.883 71.2477 132.817 70.4864C132.462 70.3086 131.972 70.1957 131.5 70.1241C131.174 70.0746 131.5 79.5 131.5 79.5L131 81.5L128.64 64.9801C128.562 64.4373 128.936 63.9326 129.479 63.8576C138.87 62.561 150.074 62.968 159.6 63.314C160.071 63.3311 160.538 63.3481 161 63.3647ZM144.66 86.979C141.323 86.3392 133.315 83.7792 135.317 71.6245C135.581 70.0177 135.747 68.9353 136.351 68.2246C137.701 66.6345 141.242 66.9044 152.978 67.3238C153.956 67.3588 154.771 68.0912 154.855 69.0662C155.467 76.1881 154.519 87.5696 144.66 86.979Z" fill="#FFC733"/>
<path d="M181 62L161 63.3647V67C166.532 68.2664 175.5 69.5 176.5 68C177.5 64.5 180.228 62.5427 181 62Z" fill="#FFC733"/>
<path d="M193.339 63.3647C193.21 62.4565 190.059 62.4098 188.5 62.5C190 65 190 69.5 190 69.5C190 69.5 192.5 71.4989 193.5 69.9989C193.667 68.4989 193.468 64.2729 193.339 63.3647Z" fill="#FFC733"/>
<mask id="mask3_2949_240508" style="mask-type:alpha" maskUnits="userSpaceOnUse" x="135" y="67" width="20" height="20">
<path d="M135.317 71.6234C133.315 83.7781 141.323 86.3381 144.66 86.9779C154.519 87.5684 155.467 76.1869 154.855 69.0651C154.771 68.0901 153.956 67.3576 152.978 67.3227C135.996 66.7158 136.173 66.4219 135.317 71.6234Z" fill="#D9D9D9"/>
</mask>
<g mask="url(#mask3_2949_240508)">
<path opacity="0.3" d="M156.838 89.2877L137.232 66.3973L134.989 66.8009L129.957 71.736L151.088 94.1281L155.484 94.0089L156.838 89.2877Z" fill="white"/>
<path opacity="0.3" d="M160.364 85.0924L140.758 62.202L138.515 62.6056L138.728 64.4589L159.86 86.8509L160.364 85.0924Z" fill="white"/>
</g>
</svg>
