<svg width="657" height="804" viewBox="0 0 657 804" fill="none" xmlns="http://www.w3.org/2000/svg">
<g clip-path="url(#clip0_2273_254736)">
<g clip-path="url(#clip1_2273_254736)">
<path d="M31.9401 483.766C31.9401 495.515 31.9401 505.191 31.9401 514.867C31.9401 523.851 29.3239 531.454 19.5133 532.145C9.70275 532.836 5.12448 525.925 4.47044 516.94C2.50832 493.442 -2.06995 469.252 1.85429 446.445C9.04871 402.212 10.3568 357.289 16.8972 313.056C32.5941 209.387 76.4147 121.613 154.245 55.2644C184.331 29.6925 218.995 11.7231 256.929 2.73842C260.2 2.04729 263.47 0.665028 267.394 0.665028C274.588 -0.0261033 281.129 2.04729 283.745 10.3409C286.361 20.0167 281.129 25.5457 273.28 28.3103C264.778 31.0748 255.621 33.1482 247.119 35.9127C207.222 50.4265 173.866 74.6161 145.089 106.408C107.155 147.876 80.3389 196.255 65.2961 252.237C67.9122 248.781 70.5284 245.325 73.1445 241.87C75.7607 237.723 78.3768 232.885 80.993 228.738C121.543 161.007 176.483 112.628 248.427 84.983C379.235 36.6038 523.123 93.9677 593.759 176.903C658.509 253.619 673.552 340.01 636.272 435.387C617.305 484.457 588.527 525.925 548.631 558.408C447.909 639.961 334.76 668.989 209.839 636.506C133.316 616.463 75.7607 568.775 39.7885 494.133C38.4805 491.368 37.1724 489.295 35.8643 486.53C35.8643 486.53 35.2103 485.839 31.9401 483.766ZM304.02 616.463C368.116 615.772 431.558 597.802 489.767 561.863C543.398 528.689 583.949 483.766 607.494 422.946C639.542 340.702 627.115 266.059 571.522 199.02C545.361 167.228 512.659 145.111 476.686 128.524C348.495 68.3959 207.877 104.335 125.468 218.371C91.4576 265.368 66.6041 317.894 48.291 374.567C45.0208 384.243 44.3668 395.301 45.6749 404.977C58.1016 485.839 97.344 546.659 167.326 584.671C208.531 608.169 253.659 616.463 304.02 616.463Z" fill="#96D9F6" fill-opacity="0.31"/>
</g>
<path d="M191.175 725.352C194.821 716.226 191.175 702.536 191.175 702.536H213.051C213.051 702.536 209.405 742.693 213.051 752.733C216.697 762.772 223.078 791.065 223.078 791.065C223.078 791.065 220.343 802.017 206.671 803.842C192.998 805.667 182.06 791.065 182.06 791.065V770.073C182.06 770.073 178.414 753.645 180.237 744.518C182.06 735.392 187.529 734.479 191.175 725.352Z" fill="#F7C9AA"/>
<path d="M280.224 358.89C286.697 361.196 301.219 363.587 314.901 363.935C325.118 364.196 332.837 358.632 341.022 362.279C349.207 365.926 357.464 376.541 354.413 376.915C351.362 377.29 345.373 372.599 342.136 371.445C338.899 370.292 334.322 370.854 334.508 372.382C334.604 373.178 339.482 377.91 345.631 381.095C351.288 384.026 357.055 383.132 360.104 385.52C363.152 387.908 356.083 390.665 356.269 392.193C356.455 393.721 359.691 394.874 356.826 396.776C353.96 398.679 345.961 396.56 345.961 396.56C344.435 396.747 345.476 398.945 340.899 399.507C336.322 400.069 332.9 397.388 327.096 394.224C321.293 391.061 314.077 382.643 310.84 381.49C307.603 380.337 270.019 389.603 255.36 383.65C240.702 377.697 232.816 370.138 232.558 361.641C232.3 353.145 242.423 347.25 251.092 348.512C259.761 349.773 273.75 356.584 280.224 358.89Z" fill="#E9B18A"/>
<path d="M227.635 697.06V673.33H252.246L247.688 700.71C247.688 700.71 251.334 708.742 262.272 715.313L262.273 715.313C273.211 721.885 289.617 731.741 291.44 741.78C293.263 751.82 285.06 750.907 272.299 749.994C259.538 749.082 257.715 741.78 247.688 737.217C237.662 732.654 221.254 727.178 221.254 727.178C221.254 727.178 218.52 717.138 221.254 711.662C223.989 706.186 227.635 703.448 227.635 697.06Z" fill="#DEB599"/>
<path d="M266.831 559.246C271.388 539.168 281.415 505.399 281.415 505.399L239.485 514.526L235.839 572.937L220.344 672.418C220.344 672.418 230.37 682.457 241.308 681.544C252.246 680.632 255.893 677.894 255.893 677.894V666.029C255.893 666.029 266.831 634.998 266.831 611.269C266.831 587.539 262.273 579.325 266.831 559.246Z" fill="#00559B"/>
<path opacity="0.5" d="M266.831 559.246C271.388 539.168 281.415 505.399 281.415 505.399L239.485 514.526L235.839 572.937L220.344 672.418C220.344 672.418 230.37 682.457 241.308 681.544C252.246 680.632 255.893 677.894 255.893 677.894V666.029C255.893 666.029 266.831 634.998 266.831 611.269C266.831 587.539 262.273 579.325 266.831 559.246Z" fill="#041E42"/>
<path d="M250.85 705.512C253.126 708.346 256.78 712.014 262.272 715.313C273.21 721.884 289.617 731.741 291.44 741.781C293.206 751.506 285.562 750.954 273.481 750.08C273.091 750.052 272.697 750.023 272.299 749.995C264.4 749.43 260.692 746.417 256.635 743.121C254.138 741.092 251.508 738.956 247.688 737.217C237.662 732.654 221.254 727.178 221.254 727.178C221.254 727.178 218.52 717.138 221.254 711.662C222.1 709.97 223.032 708.539 223.917 707.181C224.644 706.065 225.338 704.999 225.926 703.877L233.104 711.662L250.85 705.512Z" fill="#D9D9D9"/>
<path d="M211.527 741.062C211.708 746.061 212.164 750.289 213.051 752.733C216.697 762.772 223.078 791.065 223.078 791.065C223.078 791.065 220.343 802.017 206.671 803.842C192.998 805.667 182.06 791.065 182.06 791.065V770.073C182.06 770.073 178.414 753.645 180.237 744.519C180.672 742.34 181.315 740.629 182.092 739.163L186.618 744.519C186.618 744.519 189.352 738.13 197.556 738.13C205.759 738.13 207.582 744.519 207.582 744.519L211.527 741.062Z" fill="#E8E8E8"/>
<path d="M204.848 578.412C204.848 556.508 191.175 515.438 191.175 515.438L245.866 518.176C245.866 518.176 251.335 548.294 248.6 581.15C245.866 614.007 233.105 653.251 224.901 671.505C216.698 689.758 214.875 708.012 214.875 708.012C214.875 708.012 211.229 714.4 201.202 714.4C191.175 714.4 184.795 704.361 184.795 704.361C184.795 704.361 188.441 649.601 191.175 628.609C193.91 607.618 204.848 600.317 204.848 578.412Z" fill="#00559B"/>
<path d="M165.653 352.983C157.449 337.468 164.741 270.843 171.122 260.803C177.503 250.764 195.733 231.598 239.485 243.463C283.237 255.327 281.414 272.668 284.149 279.057C286.883 285.445 278.68 371.236 284.149 387.665C289.618 404.093 303.29 505.399 303.29 505.399L261.361 518.176V526.39C261.361 526.39 246.777 530.041 219.432 528.216C192.086 526.39 177.502 520.914 177.502 520.914C177.502 520.914 171.122 478.932 173.856 436.949C176.591 394.966 186.617 379.45 186.617 379.45C186.617 379.45 173.856 368.498 165.653 352.983Z" fill="#EFEFEF"/>
<path d="M218.849 297.871L215.854 288.278C215.653 287.634 216.134 286.98 216.809 286.98H233.529C233.967 286.98 234.354 287.264 234.484 287.682L237.478 297.275C237.679 297.919 237.198 298.573 236.524 298.573H219.803C219.366 298.573 218.979 298.289 218.849 297.871Z" fill="#00559B"/>
<path fill-rule="evenodd" clip-rule="evenodd" d="M224.133 292.779C224.133 293.026 224.264 293.222 224.424 293.222L226.047 293.069C226.144 293.055 226.22 292.928 226.22 292.779C226.22 292.627 226.144 292.499 226.047 292.481L224.424 292.333C224.264 292.333 224.133 292.529 224.133 292.779ZM225.463 295.105C225.384 295.251 225.481 295.468 225.685 295.592C225.889 295.719 226.117 295.697 226.197 295.548L226.886 294.002C226.917 293.904 226.851 293.774 226.727 293.697C226.602 293.621 226.46 293.628 226.398 293.708L225.463 295.105ZM226.197 290.002C226.117 289.857 225.889 289.835 225.685 289.959C225.481 290.086 225.384 290.303 225.463 290.449L226.398 291.846C226.46 291.926 226.602 291.933 226.727 291.857C226.851 291.78 226.917 291.65 226.886 291.552L226.197 290.002ZM228.271 295.548C228.354 295.697 228.582 295.719 228.786 295.592C228.99 295.468 229.087 295.251 229.008 295.105L228.073 293.708C228.008 293.628 227.866 293.621 227.741 293.697C227.616 293.774 227.551 293.904 227.585 294.002L228.271 295.548ZM227.585 291.552C227.551 291.65 227.616 291.78 227.741 291.857C227.866 291.933 228.008 291.926 228.073 291.846L229.008 290.449C229.087 290.303 228.99 290.086 228.786 289.959C228.582 289.835 228.354 289.857 228.271 290.002L227.585 291.552ZM228.248 292.775C228.248 292.928 228.321 293.055 228.418 293.069L230.041 293.222C230.204 293.222 230.335 293.026 230.335 292.779C230.335 292.529 230.204 292.333 230.041 292.333L228.418 292.481C228.321 292.499 228.248 292.627 228.248 292.775Z" fill="#FFC220"/>
<path d="M221.255 214.257C226.724 223.384 213.963 239.812 213.963 239.812C213.963 239.812 215.786 246.201 219.432 250.764C223.078 255.327 230.37 261.716 230.37 261.716L224.901 267.192C224.901 267.192 227.636 272.668 234.016 277.232C240.397 281.795 242.22 282.708 248.6 282.708C254.981 282.708 262.273 279.97 255.892 270.843C249.512 261.716 244.954 252.589 244.954 252.589C244.954 252.589 241.308 241.637 246.777 237.987C252.246 234.336 260.108 247.113 264.096 242.55C268.084 237.987 269.881 234.454 272.3 231.598C274.131 229.435 276.966 233.186 280.718 231.653C281.751 231.231 282.031 229.976 281.635 228.932C274.578 210.334 281.911 205.88 283.237 200.567C284.605 195.091 285.06 167.66 261.361 160.41C237.662 153.159 222.167 163.148 217.609 178.663C213.052 194.179 215.786 205.131 221.255 214.257Z" fill="#F7C9AA"/>
<path d="M276.52 201.803C275.808 201.464 273.712 201.232 272.018 201.686C270.325 202.141 269.38 202.789 268.005 203.818" stroke="#9B5627" stroke-width="3.39352" stroke-linecap="round"/>
<path d="M276.52 201.803C275.808 201.464 273.712 201.232 272.018 201.686C270.325 202.141 269.38 202.789 268.005 203.818" stroke="#844921" stroke-width="4.37511" stroke-linecap="round"/>
<path d="M259.281 229.94C259.49 230.701 260.684 232.441 262.135 233.427C263.586 234.414 264.693 234.706 266.369 235.075" stroke="#9C5620" stroke-width="4.37511" stroke-linecap="round"/>
<path fill-rule="evenodd" clip-rule="evenodd" d="M272.228 211.959C271.547 213.308 270.266 214.034 269.367 213.579C268.468 213.124 268.293 211.661 268.974 210.312C269.655 208.963 270.935 208.236 271.834 208.691C272.733 209.146 272.909 210.609 272.228 211.959Z" fill="black"/>
<path d="M222.419 217.398C223.923 215.895 225.654 214.234 227.634 212.432C233.217 207.35 239.082 206.796 245.388 206.2C250.407 205.725 255.704 205.224 261.36 202.393C267.905 199.116 276.129 191.277 282.588 184.418C280.426 175.039 274.746 164.505 261.36 160.41C237.661 153.159 222.165 163.148 217.608 178.663C213.05 194.179 215.785 205.131 221.254 214.257C221.837 215.231 222.213 216.287 222.419 217.398Z" fill="#9B5627"/>
<ellipse cx="19.437" cy="21.0275" rx="19.437" ry="21.0275" transform="matrix(0.877639 0.479323 -0.478382 0.878152 210.201 146.759)" fill="#9B5627"/>
<ellipse cx="6.75443" cy="9.29336" rx="6.75443" ry="9.29336" transform="matrix(0.868113 0.496367 -0.495413 0.868657 245.369 193.054)" fill="#F7C9AA"/>
<path d="M384.321 353.98C378.162 351.214 366.224 342.982 356.26 333.839C348.819 327.012 347.08 317.66 338.802 314.694C330.523 311.729 317.496 313.788 319.413 316.156C321.331 318.524 328.752 319.221 331.831 320.604C334.91 321.988 337.786 325.54 336.624 326.525C336.019 327.038 329.361 327.134 322.841 325.231C316.843 323.48 313.344 318.869 309.567 318.514C305.79 318.159 308.957 325.022 307.795 326.007C306.634 326.992 303.555 325.608 304.31 328.962C305.066 332.315 312.182 336.266 312.182 336.266C313.141 337.45 310.919 338.335 313.795 341.888C316.671 345.44 320.912 345.838 327.171 347.52C333.431 349.202 344.236 348.028 347.315 349.412C350.394 350.795 370.874 383.354 385.311 389.086C399.747 394.818 410.451 394.728 416.361 388.719C422.272 382.709 419.047 371.465 412.032 366.429C405.017 361.394 390.479 356.747 384.321 353.98Z" fill="#B57542"/>
<path d="M270.817 291.727L349.369 291.81C351.142 291.812 352.784 292.746 353.693 294.271L382.918 343.315C384.94 346.709 382.453 351.003 378.506 350.933L299.714 349.524C297.986 349.493 296.394 348.578 295.497 347.1L266.511 299.382C264.47 296.021 266.888 291.723 270.817 291.727Z" fill="#E8E8E8"/>
<path d="M265.469 293.409C265.757 293.344 266.062 293.313 266.379 293.321L348.072 293.192C349.324 293.224 350.472 293.897 351.112 294.973L382.033 346.856C382.834 348.202 382.656 349.742 381.863 350.852C381.577 350.916 381.275 350.947 380.961 350.939L298.936 349.522C297.691 349.492 296.547 348.829 295.902 347.764L265.314 297.428C264.496 296.078 264.671 294.526 265.469 293.409Z" fill="#828282"/>
<path d="M236.802 351.644C243.275 353.95 257.797 356.341 271.479 356.69C281.696 356.95 289.415 351.386 297.6 355.033C305.785 358.68 314.042 369.295 310.991 369.67C307.94 370.044 301.951 365.353 298.714 364.2C295.477 363.046 290.9 363.608 291.086 365.136C291.182 365.932 296.06 370.664 302.209 373.849C307.866 376.78 313.634 375.887 316.682 378.274C319.73 380.662 312.661 383.42 312.847 384.947C313.033 386.475 316.269 387.628 313.404 389.531C310.538 391.433 302.539 389.314 302.539 389.314C301.013 389.501 302.054 391.699 297.477 392.261C292.901 392.823 289.478 390.142 283.674 386.979C277.871 383.815 270.655 375.397 267.418 374.244C264.181 373.091 226.597 382.357 211.938 376.404C197.28 370.452 189.394 362.892 189.136 354.395C188.878 345.899 199.001 340.005 207.67 341.266C216.339 342.527 230.328 349.338 236.802 351.644Z" fill="#F7C9AA"/>
<path d="M164.352 349.702C164.733 350.961 165.165 352.062 165.652 352.983C173.856 368.499 186.617 379.451 186.617 379.451C186.617 379.451 186.601 379.475 186.571 379.525C194.018 380.403 204.933 381.634 212.139 382.189C223.989 383.101 244.953 381.276 244.953 381.276C244.953 381.276 243.13 368.499 244.953 356.634C246.776 344.769 254.068 334.73 254.068 334.73L178.413 342.944L164.352 349.702Z" fill="#EFEFEF"/>
<path d="M249.816 237.379C246.714 234.273 241.378 228.931 239.484 227.035C237.326 224.874 237.439 239.193 243.853 247.124C243.547 243.825 243.908 239.902 246.777 237.987C247.699 237.371 248.726 237.222 249.816 237.379Z" fill="#ECB691"/>
<path d="M442.105 696.314L442.649 689.78L406.994 689.623C406.994 689.623 400.391 701.289 394.487 704.555C388.583 707.821 370.64 709.143 367.61 711.709C364.58 714.275 367.531 723.92 374.755 727.343C381.979 730.765 394.719 735.588 411.652 735.123C428.586 734.657 448.16 736.291 450.647 728.981C453.133 721.67 448.085 703.392 446.454 700.436C444.823 697.48 442.105 696.314 442.105 696.314Z" fill="#DBDBDB"/>
<path d="M478.546 727.177C479.52 720.428 466.055 697.684 466.055 697.684L439.977 700.28C439.977 700.28 437.196 700.658 433.521 715.334C429.846 730.011 410.791 749.611 410.791 749.611C410.791 749.611 410.32 760.072 423.673 761.093C437.027 762.115 447.898 758.748 452.155 755.335C456.412 751.921 462.696 742.561 468.555 737.04C474.415 731.518 477.573 733.925 478.546 727.177Z" fill="#E8E8E8"/>
<path d="M395.583 533.601C391.934 509.801 391.547 480.635 391.547 480.635L461.769 471.461L450.656 548.538L448.788 604.77L449.483 686.592C449.483 686.592 443.346 692.658 433.869 693.746C424.392 694.835 414.139 693.979 414.139 693.979C414.139 693.979 412.978 617.757 411.814 597.924C410.65 578.09 399.233 557.401 395.583 533.601Z" fill="#686868"/>
<path d="M456.473 241.551C458.344 235.932 458.344 222.82 458.344 222.82L435.782 234.083L419.994 258.409L475.181 300.554C475.181 300.554 478.922 270.584 469.569 260.282C460.215 249.98 449.926 252.79 449.926 252.79C449.926 252.79 454.603 247.17 456.473 241.551Z" fill="#211E1F"/>
<path d="M421.729 530.744C418.46 506.614 418.41 457.474 418.41 457.474L481.926 473.421C481.926 473.421 466.628 541.658 466.786 556.759C466.944 571.86 477.377 593.126 478.289 613.795C479.201 634.464 473.722 698.533 473.722 698.533C473.722 698.533 468.538 702.072 459.143 702.403C449.749 702.734 444.612 699.651 444.612 699.651C444.612 699.651 450.03 663 448.269 650.007L441.857 602.676C440.6 593.395 424.998 554.874 421.729 530.744Z" fill="#9B9B9B"/>
<path d="M479.204 293.999C470.785 264.965 447.12 270.585 426.542 274.331C405.964 278.077 394.567 289.932 388.02 299.298C381.473 308.664 372.291 326.778 372.291 338.953C372.291 351.129 376.968 381.977 379.774 407.264C382.58 432.551 379.774 493.486 379.774 493.486C379.774 493.486 391.712 502.7 416.967 503.636C442.222 504.573 483.6 497.232 483.6 497.232C483.6 497.232 492.953 478.501 492.953 468.199C492.953 457.897 490.147 422.307 483.6 389.528C477.052 356.748 487.622 323.032 479.204 293.999Z" fill="#FFC220"/>
<path d="M421.657 363.292C415.268 361.114 402.614 354.034 391.841 345.863C383.796 339.761 379.086 329.736 370.568 327.557L371.609 340.416C371.055 340.983 364.434 341.702 357.766 340.416C351.63 339.233 347.716 334.969 343.923 334.969C340.129 334.969 343.923 341.505 342.858 342.595C341.793 343.684 338.599 342.595 339.664 345.863C340.728 349.131 348.182 352.399 348.182 352.399C349.247 353.488 347.117 354.578 350.312 357.846C353.507 361.114 357.766 361.114 364.155 362.203C370.544 363.292 381.193 361.114 384.387 362.203C387.582 363.292 411.009 393.794 425.917 398.152C440.825 402.509 451.473 401.42 456.797 394.884C462.122 388.348 457.862 377.454 450.408 373.097C442.954 368.739 428.046 365.471 421.657 363.292Z" fill="#CC8B57"/>
<path d="M444.315 273.394L403.158 308.983C403.158 308.983 401.288 296.808 401.288 291.189C401.288 285.569 413.861 281.102 414.796 276.11C415.732 271.119 414.919 262.042 411.178 260.169C407.436 258.296 398.482 260.282 394.74 259.037C390.999 257.792 392.362 245.076 392.362 241.329C392.362 237.583 382.231 238.431 385.849 233.359C389.468 228.287 395.257 222.401 395.257 219.591C395.257 216.782 393.805 214.082 393.805 210.336C393.805 206.59 393.805 200.034 395.675 195.351C397.546 190.668 408.771 176.62 434.961 180.366C461.151 184.112 463.022 209.399 461.151 221.574C459.28 233.75 431.441 223.939 439.638 254.354C447.834 284.769 444.315 273.394 444.315 273.394Z" fill="#CC8B57"/>
<path fill-rule="evenodd" clip-rule="evenodd" d="M404.064 226.024C404.064 227.575 403.226 228.834 402.193 228.834C401.159 228.834 400.322 227.575 400.322 226.024C400.322 224.473 401.159 223.214 402.193 223.214C403.226 223.214 404.064 224.473 404.064 226.024Z" fill="black"/>
<path d="M407.834 221.551C407.58 220.804 406.286 219.137 404.78 218.238C403.273 217.339 402.151 217.113 400.455 216.844" stroke="#AD764A" stroke-width="2" stroke-linecap="round"/>
<path d="M457.409 273.394L451.797 260.282L440.573 266.838L422.801 282.76L434.025 293.062L457.409 273.394Z" fill="#FFC220"/>
<path d="M393.992 203.742C395.863 201.434 395.856 198.652 399.598 196.404C399.598 196.404 403.94 207.998 414.795 216.693C425.65 225.388 440.949 234.832 446.322 240.587C447.553 239.329 448.865 238.081 450.181 236.828C455.201 232.051 460.283 227.215 461.149 221.574C463.02 209.399 461.149 184.112 434.959 180.366C408.769 176.62 397.544 190.668 395.674 195.351C394.675 197.851 394.209 200.886 393.992 203.742Z" fill="#211E1F"/>
<ellipse cx="6.02217" cy="7.83193" rx="6.02217" ry="7.83193" transform="matrix(0.821024 0.570894 -0.569912 0.821706 436.748 220.686)" fill="#CC8B57"/>
<path fill-rule="evenodd" clip-rule="evenodd" d="M401.174 244.953L393.086 245.131C393.086 245.131 393.645 250.23 396.251 250.641C399.588 251.17 401.174 244.953 401.174 244.953" fill="white"/>
</g>
<defs>
<clipPath id="clip0_2273_254736">
<rect width="657" height="804" fill="white"/>
</clipPath>
<clipPath id="clip1_2273_254736">
<rect width="657" height="650" fill="white"/>
</clipPath>
</defs>
</svg>
